<svg width="950" height="1019" viewBox="0 0 950 1019" fill="none" xmlns="http://www.w3.org/2000/svg">
<path d="M240.883 0.00415039H11.5303V330.114H240.883V0.00415039Z" fill="#E0E0E0"/>
<path d="M229.394 0.00415039H0.0419922V330.114H229.394V0.00415039Z" fill="#F5F5F5"/>
<path d="M200.899 35.757H28.5371V294.361H200.899V35.757Z" fill="white"/>
<path d="M200.9 294.361C200.9 294.361 200.877 293.923 200.865 293.098C200.856 292.245 200.847 291.025 200.831 289.431C200.815 286.18 200.792 281.422 200.763 275.246C200.726 262.852 200.674 244.792 200.61 221.976C200.541 176.375 200.443 111.803 200.329 35.7593L200.902 36.3263C148.24 36.3399 89.8881 36.358 28.5582 36.3761H28.5376L29.1611 35.757C29.1132 133.313 29.0698 223.259 29.0355 294.359L28.5376 293.867C81.0285 293.976 124.054 294.064 153.995 294.125C168.972 294.18 180.668 294.223 188.657 294.25C192.627 294.275 195.669 294.293 197.757 294.304C199.815 294.325 200.9 294.361 200.9 294.361C200.9 294.361 199.886 294.397 197.86 294.413C195.795 294.427 192.785 294.445 188.854 294.47C180.89 294.5 169.232 294.54 154.304 294.595C124.29 294.656 81.1587 294.747 28.5376 294.853H28.0397V294.359C28.0054 223.259 27.9597 133.31 27.9141 35.757V35.1378H28.5376H28.5582C89.8881 35.156 148.24 35.1741 200.9 35.19H201.473V35.7593C201.359 111.955 201.261 176.656 201.192 222.348C201.126 245.109 201.073 263.126 201.039 275.489C201.009 281.617 200.986 286.337 200.97 289.56C200.954 291.127 200.945 292.324 200.936 293.164C200.922 293.969 200.9 294.361 200.9 294.361Z" fill="#E0E0E0"/>
<path d="M230.039 0.00417893C230.174 0.108507 228.616 2.36516 225.95 5.90324C223.285 9.44132 219.505 14.254 215.188 19.4568C210.869 24.6619 206.838 29.2682 203.85 32.5432C200.863 35.8182 198.933 37.7686 198.805 37.6575C198.673 37.5441 200.37 35.3895 203.181 31.9716C206.256 28.268 210.04 23.7093 214.224 18.6675C218.404 13.6258 222.184 9.06484 225.256 5.35893C228.097 1.96373 229.902 -0.102417 230.039 0.00417893Z" fill="#E0E0E0"/>
<path d="M201.778 293.529C210.339 307.046 220.445 319.597 231.84 330.862Z" fill="white"/>
<path d="M231.841 330.862C231.726 330.976 229.682 329.213 226.599 326.129C223.518 323.047 219.434 318.608 215.259 313.428C211.088 308.244 207.626 303.311 205.275 299.648C202.923 295.985 201.641 293.615 201.779 293.529C201.934 293.431 203.478 295.633 206.006 299.156C208.535 302.68 212.089 307.5 216.234 312.655C220.384 317.803 224.338 322.305 227.243 325.528C230.146 328.753 231.971 330.733 231.841 330.862Z" fill="#E0E0E0"/>
<path d="M0.0078125 329.853C10.0209 317.583 20.0362 305.316 30.0493 293.048Z" fill="white"/>
<path d="M30.0494 293.046C30.3166 293.261 23.8095 301.675 15.514 311.838C7.21624 322.003 0.275173 330.066 0.00794469 329.851C-0.259283 329.635 6.24783 321.223 14.5456 311.058C22.8411 300.897 29.7822 292.83 30.0494 293.046Z" fill="#E0E0E0"/>
<path d="M0.0418155 0.00420535C0.311328 -0.206719 6.84128 7.54304 14.6229 17.3136C22.4067 27.0864 28.4959 35.1809 28.2264 35.3918C27.9569 35.6027 21.4292 27.8552 13.643 18.0802C5.86144 8.30962 -0.227696 0.215129 0.0418155 0.00420535Z" fill="#E0E0E0"/>
<path d="M147.201 88.2634H89.4863V250.981H147.201V88.2634Z" fill="#E0E0E0"/>
<path d="M829.05 711.34H419.771V898.772H829.05V711.34Z" fill="#F5F5F5"/>
<path d="M819.306 889.938H429.137V721.201H819.306V889.938ZM431.683 887.411H816.761V723.732H431.683V887.411Z" fill="#E0E0E0"/>
<path d="M929.034 711.34H829.05V898.772H929.034V711.34Z" fill="#E0E0E0"/>
<path d="M430.409 773.422C474.255 773.422 518.101 773.422 561.947 773.422C631.221 773.422 700.497 773.422 769.77 773.422C785.856 773.422 801.945 773.422 818.033 773.422C818.696 773.422 818.696 772.401 818.033 772.401C774.188 772.401 730.342 772.401 686.496 772.401C617.222 772.401 547.946 772.401 478.672 772.401C462.584 772.401 446.497 772.401 430.409 772.401C429.749 772.401 429.747 773.422 430.409 773.422Z" fill="#E0E0E0"/>
<path d="M625.488 772.911C626.651 756.273 626.525 738.651 625.621 721.999C625.584 721.333 624.614 721.333 624.577 721.999C623.673 738.653 623.547 756.273 624.71 772.911C624.744 773.408 625.454 773.41 625.488 772.911Z" fill="#E0E0E0"/>
<path d="M729.824 747.455C729.824 750.352 727.46 752.699 724.543 752.699C721.627 752.699 719.263 750.352 719.263 747.455C719.263 744.559 721.627 742.212 724.543 742.212C727.46 742.212 729.824 744.559 729.824 747.455Z" fill="#E0E0E0"/>
<path d="M526.397 747.455C526.397 750.352 524.033 752.699 521.117 752.699C518.2 752.699 515.836 750.352 515.836 747.455C515.836 744.559 518.2 742.212 521.117 742.212C524.033 742.212 526.397 744.559 526.397 747.455Z" fill="#E0E0E0"/>
<path d="M629.504 805.571C629.504 808.467 627.14 810.814 624.223 810.814C621.306 810.814 618.942 808.467 618.942 805.571C618.942 802.674 621.306 800.327 624.223 800.327C627.14 800.327 629.504 802.674 629.504 805.571Z" fill="#E0E0E0"/>
<path d="M468.703 898.772L447.631 1016.44H459.483L498.336 898.772H468.703Z" fill="#E0E0E0"/>
<path d="M800.093 898.772L817.714 1016.65H805.86L770.46 898.772H800.093Z" fill="#E0E0E0"/>
<path d="M879.213 898.772L899.177 1016.65H887.325L849.58 898.772H879.213Z" fill="#E0E0E0"/>
<path d="M629.149 858.617C629.149 861.513 626.785 863.86 623.868 863.86C620.952 863.86 618.588 861.513 618.588 858.617C618.588 855.721 620.952 853.373 623.868 853.373C626.785 853.371 629.149 855.721 629.149 858.617Z" fill="#E0E0E0"/>
<path d="M430.409 831.462C474.255 831.462 518.101 831.462 561.947 831.462C631.221 831.462 700.497 831.462 769.77 831.462C785.856 831.462 801.945 831.462 818.033 831.462C818.696 831.462 818.696 830.441 818.033 830.441C774.188 830.441 730.342 830.441 686.496 830.441C617.222 830.441 547.946 830.441 478.672 830.441C462.584 830.441 446.497 830.441 430.409 830.441C429.749 830.444 429.747 831.462 430.409 831.462Z" fill="#E0E0E0"/>
<path d="M670.17 958.63L670.046 935.376L555.008 935.981L555.132 959.235L670.17 958.63Z" fill="#E0E0E0"/>
<path d="M683.981 1017.27L683.788 981.134L555.569 981.809L555.762 1017.94L683.981 1017.27Z" fill="#F5F5F5"/>
<path d="M659.288 1017C658.943 1017 658.664 1008.91 658.664 998.933C658.664 988.954 658.943 980.867 659.288 980.867C659.633 980.867 659.911 988.954 659.911 998.933C659.909 1008.91 659.63 1017 659.288 1017Z" fill="#E0E0E0"/>
<path d="M664.673 1017C664.33 1017 664.052 1008.91 664.052 998.933C664.052 988.954 664.33 980.867 664.673 980.867C665.016 980.867 665.294 988.954 665.294 998.933C665.294 1008.91 665.016 1017 664.673 1017Z" fill="#E0E0E0"/>
<path d="M575.063 1017C574.72 1017 574.441 1008.91 574.441 998.933C574.441 988.954 574.72 980.867 575.063 980.867C575.408 980.867 575.684 988.954 575.684 998.933C575.684 1008.91 575.405 1017 575.063 1017Z" fill="#E0E0E0"/>
<path d="M580.448 1017C580.103 1017 579.824 1008.91 579.824 998.933C579.824 988.954 580.103 980.867 580.448 980.867C580.79 980.867 581.069 988.954 581.069 998.933C581.069 1008.91 580.79 1017 580.448 1017Z" fill="#E0E0E0"/>
<path d="M592.201 999.512C592.201 999.165 605.138 998.886 621.092 998.886C637.05 998.886 649.984 999.167 649.984 999.512C649.984 999.857 637.05 1000.14 621.092 1000.14C605.136 1000.14 592.201 999.859 592.201 999.512Z" fill="#E0E0E0"/>
<path d="M732.142 980.942L732.018 957.688L573.798 958.52L573.922 981.774L732.142 980.942Z" fill="#EBEBEB"/>
<path d="M709.484 978.025C705.355 978.025 702.009 974.657 702.009 970.504C702.009 966.351 705.357 962.983 709.484 962.983C713.614 962.983 716.962 966.351 716.962 970.504C716.96 974.657 713.614 978.025 709.484 978.025Z" fill="#E0E0E0"/>
<path d="M688.919 972.829V968.179H583.01V972.829H688.919Z" fill="#E0E0E0"/>
<path d="M948.577 30.9624H339.932V635.344H948.577V30.9624Z" fill="#FAFAFA"/>
<path d="M948.576 635.344C948.572 630.982 948.371 393.357 948.062 30.9647L948.576 31.475C771.681 31.4977 562.822 31.5249 339.991 31.5544H339.934L340.527 30.9647C340.498 252.285 340.47 459.692 340.448 635.344L339.934 634.833C704.928 635.137 944.184 635.339 948.576 635.344C944.189 635.348 704.928 635.548 339.934 635.854H339.42V635.344C339.397 459.692 339.37 252.283 339.34 30.9647V30.375H339.934H339.991C562.822 30.4045 771.681 30.4317 948.576 30.4544H949.09V30.9647C948.782 393.357 948.579 630.984 948.576 635.344Z" fill="#263238"/>
<path d="M520.544 107.802H527.217V120.519C523.746 123.118 518.965 124.504 514.457 124.504C504.533 124.504 497.229 117.743 497.229 108.294C497.229 98.8459 504.533 92.0828 514.591 92.0828C520.139 92.0828 524.737 93.9652 527.804 97.501L523.115 101.801C520.813 99.3835 518.155 98.2631 514.952 98.2631C508.818 98.2631 504.626 102.339 504.626 108.294C504.626 114.159 508.82 118.326 514.863 118.326C516.846 118.326 518.696 117.967 520.544 116.983V107.802Z" fill="#3D96FF"/>
<path d="M557.11 113.892H538.756C539.435 116.892 542.004 118.727 545.702 118.727C548.274 118.727 550.121 117.965 551.791 116.398L555.534 120.428C553.28 122.98 549.895 124.325 545.521 124.325C537.132 124.325 531.676 119.083 531.676 111.919C531.676 104.709 537.224 99.515 544.619 99.515C551.743 99.515 557.245 104.262 557.245 112.009C557.245 112.547 557.156 113.309 557.11 113.892ZM538.665 109.816H550.615C550.117 106.77 547.817 104.799 544.663 104.799C541.46 104.802 539.16 106.727 538.665 109.816Z" fill="#3D96FF"/>
<path d="M577.58 122.803C576.136 123.832 574.015 124.325 571.852 124.325C566.123 124.325 562.786 121.413 562.786 115.681V105.784H559.043V100.411H562.786V94.5458H569.821V100.411H575.865V105.784H569.821V115.591C569.821 117.65 570.947 118.77 572.843 118.77C573.88 118.77 574.917 118.457 575.682 117.874L577.58 122.803Z" fill="#3D96FF"/>
<path d="M593.446 92.6203C593.446 90.4249 595.205 88.7239 597.82 88.7239C600.435 88.7239 602.194 90.3342 602.194 92.4842C602.194 94.8135 600.435 96.5145 597.82 96.5145C595.203 96.5167 593.446 94.8135 593.446 92.6203ZM594.303 99.8756H601.337V123.966H594.303V99.8756Z" fill="#3D96FF"/>
<path d="M632.674 110.175V123.966H625.639V111.25C625.639 107.353 623.835 105.562 620.724 105.562C617.344 105.562 614.907 107.621 614.907 112.055V123.966H607.872V99.8757H614.589V102.697C616.485 100.638 619.324 99.5173 622.618 99.5173C628.346 99.5173 632.674 102.831 632.674 110.175Z" fill="#3D96FF"/>
<path d="M667.436 122.803C665.993 123.832 663.871 124.325 661.708 124.325C655.98 124.325 652.643 121.413 652.643 115.681V105.784H648.899V100.411H652.643V94.5458H659.678V100.411H665.721V105.784H659.678V115.591C659.678 117.65 660.806 118.77 662.699 118.77C663.736 118.77 664.773 118.457 665.538 117.874L667.436 122.803Z" fill="#3D96FF"/>
<path d="M668.832 111.921C668.832 104.666 674.469 99.5173 682.182 99.5173C689.893 99.5173 695.484 104.668 695.484 111.921C695.484 119.174 689.893 124.327 682.182 124.327C674.467 124.327 668.832 119.176 668.832 111.921ZM688.358 111.921C688.358 107.757 685.697 105.249 682.18 105.249C678.662 105.249 675.956 107.757 675.956 111.921C675.956 116.085 678.662 118.593 682.18 118.593C685.697 118.593 688.358 116.085 688.358 111.921Z" fill="#3D96FF"/>
<path d="M724.607 99.8757V123.966H717.934V121.1C716.084 123.204 713.379 124.325 710.401 124.325C704.314 124.325 700.029 120.92 700.029 113.488V99.8757H707.064V112.459C707.064 116.489 708.868 118.278 711.979 118.278C715.227 118.278 717.57 116.219 717.57 111.785V99.8734L724.607 99.8757Z" fill="#3D96FF"/>
<path d="M729.34 111.921C729.34 104.666 734.977 99.5173 742.87 99.5173C747.964 99.5173 751.979 101.713 753.738 105.652L748.281 108.564C746.975 106.281 745.033 105.251 742.822 105.251C739.259 105.251 736.466 107.714 736.466 111.923C736.466 116.133 739.262 118.596 742.822 118.596C745.033 118.596 746.972 117.609 748.281 115.282L753.738 118.237C751.979 122.088 747.966 124.329 742.87 124.329C734.977 124.327 729.34 119.176 729.34 111.921Z" fill="#3D96FF"/>
<path d="M782.411 110.175V123.966H775.377V111.25C775.377 107.353 773.572 105.561 770.461 105.561C767.081 105.561 764.644 107.621 764.644 112.055V123.966H757.609V90.7401H764.644V102.384C766.538 100.504 769.244 99.5173 772.355 99.5173C778.083 99.5173 782.411 102.831 782.411 110.175Z" fill="#3D96FF"/>
<path d="M805.78 148.436C805.78 148.762 731.335 149.025 639.526 149.025C547.684 149.025 473.255 148.762 473.255 148.436C473.255 148.109 547.684 147.846 639.526 147.846C731.335 147.846 805.78 148.109 805.78 148.436Z" fill="#263238"/>
<path d="M859.523 252.585C859.523 252.585 859.496 251.816 859.48 250.344C859.468 248.851 859.45 246.67 859.427 243.801C859.397 238.031 859.356 229.512 859.301 218.388L859.521 218.605C790.265 218.664 619.093 218.807 419.01 218.977H418.987L419.581 218.388C419.581 230.102 419.579 241.716 419.579 252.585L418.985 251.995C542.195 252.092 652.243 252.181 731.516 252.244C771.182 252.319 803.145 252.378 825.22 252.421C836.247 252.458 844.8 252.485 850.627 252.503C853.518 252.521 855.725 252.535 857.241 252.544C858.737 252.557 859.523 252.585 859.523 252.585C859.523 252.585 858.792 252.612 857.326 252.625C855.828 252.634 853.644 252.648 850.789 252.666C844.994 252.684 836.487 252.714 825.519 252.748C803.476 252.789 771.562 252.85 731.955 252.925C652.572 252.988 542.371 253.074 418.99 253.174H418.396V252.585C418.396 241.716 418.396 230.102 418.394 218.388V217.798H418.987H419.01C619.093 217.966 790.268 218.111 859.521 218.17H859.742L859.74 218.388C859.685 229.567 859.642 238.131 859.614 243.928C859.592 246.776 859.573 248.94 859.562 250.423C859.55 251.87 859.523 252.585 859.523 252.585Z" fill="#263238"/>
<path d="M429.35 194.27V204.201H427.447L422.459 198.171V204.201H420.173V194.27H422.087L427.059 200.3V194.27H429.35Z" fill="#263238"/>
<path d="M438.358 199.847V204.201H436.273V203.251C435.857 203.945 435.058 204.315 433.93 204.315C432.13 204.315 431.059 203.321 431.059 202.001C431.059 200.654 432.016 199.717 434.359 199.717H436.129C436.129 198.767 435.558 198.214 434.359 198.214C433.544 198.214 432.701 198.484 432.143 198.924L431.342 197.377C432.185 196.78 433.429 196.454 434.658 196.454C437.002 196.454 438.358 197.533 438.358 199.847ZM436.129 201.79V201.01H434.601C433.557 201.01 433.228 201.394 433.228 201.904C433.228 202.457 433.699 202.827 434.485 202.827C435.229 202.825 435.873 202.487 436.129 201.79Z" fill="#263238"/>
<path d="M453.36 199.833V204.204H451.131V200.173C451.131 198.94 450.573 198.373 449.673 198.373C448.673 198.373 447.974 199.012 447.974 200.373V204.204H445.745V200.173C445.745 198.94 445.215 198.373 444.288 198.373C443.301 198.373 442.602 199.012 442.602 200.373V204.204H440.373V196.57H442.504V197.45C443.075 196.796 443.934 196.456 444.918 196.456C445.989 196.456 446.905 196.869 447.447 197.706C448.061 196.926 449.061 196.456 450.217 196.456C452.044 196.454 453.36 197.504 453.36 199.833Z" fill="#263238"/>
<path d="M462.925 201.01H457.11C457.325 201.961 458.138 202.543 459.31 202.543C460.125 202.543 460.71 202.303 461.237 201.806L462.425 203.083C461.71 203.893 460.639 204.317 459.252 204.317C456.594 204.317 454.867 202.657 454.867 200.387C454.867 198.103 456.626 196.456 458.967 196.456C461.226 196.456 462.969 197.96 462.969 200.416C462.969 200.584 462.939 200.827 462.925 201.01ZM457.08 199.718H460.867C460.71 198.754 459.981 198.128 458.981 198.128C457.967 198.13 457.238 198.74 457.08 199.718Z" fill="#263238"/>
<path d="M859.523 337.952C859.523 337.952 859.496 337.183 859.48 335.711C859.468 334.219 859.45 332.037 859.427 329.168C859.397 323.398 859.356 314.88 859.301 303.755L859.521 303.973C790.265 304.032 619.093 304.175 419.01 304.345H418.987L419.581 303.755C419.581 315.469 419.579 327.084 419.579 337.952L418.985 337.365C542.195 337.462 652.243 337.551 731.516 337.614C771.182 337.689 803.145 337.748 825.22 337.791C836.247 337.827 844.8 337.855 850.627 337.873C853.518 337.891 855.725 337.904 857.241 337.914C858.737 337.925 859.523 337.952 859.523 337.952C859.523 337.952 858.792 337.979 857.326 337.993C855.828 338.002 853.644 338.016 850.789 338.034C844.994 338.052 836.487 338.081 825.519 338.115C803.476 338.156 771.562 338.217 731.955 338.292C652.572 338.356 542.371 338.442 418.99 338.542H418.396V337.952C418.396 327.084 418.396 315.469 418.394 303.755V303.166H418.987H419.01C619.093 303.336 790.268 303.479 859.521 303.537H859.742L859.74 303.755C859.685 314.936 859.642 323.498 859.614 329.295C859.592 332.144 859.573 334.307 859.562 335.791C859.55 337.238 859.523 337.952 859.523 337.952Z" fill="#263238"/>
<path d="M859.523 509.506C859.523 509.506 859.498 508.703 859.484 507.165C859.475 505.61 859.461 503.332 859.443 500.339C859.423 494.319 859.391 485.449 859.349 473.935C859.301 450.919 859.231 417.359 859.142 375.086L859.523 375.465C755.857 375.515 596.842 375.592 419.017 375.678H418.99L419.584 375.088C419.577 421.619 419.572 466.849 419.568 509.508L418.99 508.934C545.448 509.041 655.502 509.132 733.969 509.2C773.231 509.268 804.586 509.324 826.149 509.363C836.925 509.395 845.248 509.42 850.905 509.438C853.715 509.454 855.857 509.465 857.321 509.474C858.765 509.481 859.523 509.506 859.523 509.506C859.523 509.506 858.815 509.531 857.392 509.542C855.944 509.551 853.824 509.563 851.045 509.579C845.417 509.597 837.135 509.619 826.414 509.653C804.881 509.692 773.574 509.746 734.367 509.817C655.802 509.882 545.608 509.975 418.987 510.08H418.41V509.506C418.405 466.847 418.398 421.616 418.394 375.086V374.496H418.987H419.015C596.84 374.583 755.855 374.66 859.521 374.71H859.902V375.088C859.813 417.459 859.742 451.094 859.692 474.164C859.651 485.64 859.621 494.485 859.598 500.484C859.58 503.448 859.566 505.703 859.557 507.245C859.548 508.753 859.523 509.506 859.523 509.506Z" fill="#263238"/>
<path d="M427.92 287.725V289.569H420.175V279.637H427.733V281.481H422.475V283.638H427.118V285.427H422.475V287.725H427.92Z" fill="#263238"/>
<path d="M442.59 285.201V289.571H440.361V285.541C440.361 284.307 439.804 283.738 438.904 283.738C437.904 283.738 437.205 284.377 437.205 285.738V289.569H434.975V285.539C434.975 284.305 434.448 283.736 433.518 283.736C432.532 283.736 431.833 284.375 431.833 285.736V289.567H429.604V281.932H431.734V282.812C432.305 282.159 433.164 281.819 434.149 281.819C435.22 281.819 436.136 282.232 436.677 283.069C437.291 282.289 438.29 281.819 439.448 281.819C441.275 281.821 442.59 282.874 442.59 285.201Z" fill="#263238"/>
<path d="M451.384 285.214V289.569H449.298V288.619C448.883 289.313 448.083 289.682 446.955 289.682C445.155 289.682 444.084 288.689 444.084 287.369C444.084 286.022 445.041 285.085 447.384 285.085H449.154C449.154 284.135 448.583 283.581 447.384 283.581C446.569 283.581 445.726 283.851 445.169 284.291L444.367 282.744C445.21 282.148 446.455 281.821 447.684 281.821C450.027 281.821 451.384 282.901 451.384 285.214ZM449.154 287.158V286.378H447.626C446.583 286.378 446.254 286.761 446.254 287.271C446.254 287.825 446.724 288.194 447.51 288.194C448.255 288.194 448.899 287.854 449.154 287.158Z" fill="#263238"/>
<path d="M453.124 279.637C453.124 278.941 453.681 278.404 454.51 278.404C455.339 278.404 455.897 278.914 455.897 279.594C455.897 280.331 455.339 280.871 454.51 280.871C453.681 280.873 453.124 280.334 453.124 279.637ZM453.396 281.937H455.625V289.571H453.396V281.937Z" fill="#263238"/>
<path d="M457.694 279.041H459.924V289.569H457.694V279.041Z" fill="#263238"/>
<path d="M472.835 285.214V289.569H470.75V288.619C470.334 289.313 469.534 289.682 468.406 289.682C466.606 289.682 465.535 288.689 465.535 287.369C465.535 286.022 466.492 285.085 468.836 285.085H470.606C470.606 284.135 470.035 283.581 468.836 283.581C468.02 283.581 467.177 283.851 466.62 284.291L465.818 282.744C466.661 282.148 467.906 281.821 469.135 281.821C471.478 281.821 472.835 282.901 472.835 285.214ZM470.606 287.158V286.378H469.078C468.034 286.378 467.705 286.761 467.705 287.271C467.705 287.825 468.175 288.194 468.961 288.194C469.706 288.194 470.35 287.854 470.606 287.158Z" fill="#263238"/>
<path d="M482.761 279.041V289.569H480.632V288.689C480.075 289.356 479.259 289.682 478.232 289.682C476.06 289.682 474.388 288.149 474.388 285.752C474.388 283.355 476.06 281.821 478.232 281.821C479.175 281.821 479.974 282.118 480.532 282.744V279.041H482.761ZM480.575 285.752C480.575 284.432 479.719 283.638 478.618 283.638C477.503 283.638 476.647 284.434 476.647 285.752C476.647 287.072 477.503 287.868 478.618 287.868C479.719 287.868 480.575 287.072 480.575 285.752Z" fill="#263238"/>
<path d="M492.646 279.041V289.569H490.515V288.689C489.958 289.356 489.142 289.682 488.114 289.682C485.942 289.682 484.271 288.149 484.271 285.752C484.271 283.355 485.942 281.821 488.114 281.821C489.058 281.821 489.857 282.118 490.414 282.744V279.041H492.646ZM490.458 285.752C490.458 284.432 489.601 283.638 488.503 283.638C487.388 283.638 486.532 284.434 486.532 285.752C486.532 287.072 487.388 287.868 488.503 287.868C489.601 287.868 490.458 287.072 490.458 285.752Z" fill="#263238"/>
<path d="M499.471 281.821V283.865C499.284 283.851 499.14 283.838 498.968 283.838C497.742 283.838 496.926 284.504 496.926 285.967V289.571H494.697V281.937H496.828V282.944C497.37 282.205 498.285 281.821 499.471 281.821Z" fill="#263238"/>
<path d="M508.211 286.378H502.396C502.611 287.328 503.424 287.911 504.596 287.911C505.409 287.911 505.996 287.671 506.526 287.174L507.713 288.451C506.996 289.258 505.927 289.685 504.539 289.685C501.882 289.685 500.153 288.024 500.153 285.754C500.153 283.47 501.912 281.824 504.253 281.824C506.512 281.824 508.255 283.33 508.255 285.784C508.255 285.951 508.227 286.194 508.211 286.378ZM502.369 285.087H506.153C505.998 284.123 505.267 283.497 504.269 283.497C503.253 283.497 502.524 284.108 502.369 285.087Z" fill="#263238"/>
<path d="M508.995 288.859L509.737 287.269C510.425 287.709 511.466 288.008 512.41 288.008C513.437 288.008 513.823 287.739 513.823 287.312C513.823 286.063 509.18 287.339 509.18 284.289C509.18 282.842 510.496 281.819 512.741 281.819C513.798 281.819 514.97 282.06 515.699 282.486L514.956 284.06C514.198 283.633 513.44 283.491 512.741 283.491C511.738 283.491 511.311 283.804 511.311 284.2C511.311 285.507 515.954 284.244 515.954 287.251C515.954 288.671 514.625 289.678 512.325 289.678C511.026 289.685 509.71 289.328 508.995 288.859Z" fill="#263238"/>
<path d="M516.578 288.859L517.32 287.269C518.008 287.709 519.049 288.008 519.993 288.008C521.02 288.008 521.406 287.739 521.406 287.312C521.406 286.063 516.763 287.339 516.763 284.289C516.763 282.842 518.079 281.819 520.324 281.819C521.381 281.819 522.553 282.06 523.282 282.486L522.539 284.06C521.781 283.633 521.023 283.491 520.324 283.491C519.321 283.491 518.894 283.804 518.894 284.2C518.894 285.507 523.537 284.244 523.537 287.251C523.537 288.671 522.208 289.678 519.908 289.678C518.609 289.685 517.293 289.328 516.578 288.859Z" fill="#263238"/>
<path d="M429.277 363.81L429.263 357.852L426.319 362.762H425.275L422.347 357.981V363.812H420.175V353.88H422.089L425.832 360.054L429.519 353.88H431.419L431.449 363.812L429.277 363.81Z" fill="#263238"/>
<path d="M441.144 360.616H435.329C435.544 361.566 436.357 362.149 437.528 362.149C438.341 362.149 438.928 361.907 439.456 361.412L440.644 362.689C439.929 363.497 438.858 363.923 437.471 363.923C434.813 363.923 433.086 362.263 433.086 359.993C433.086 357.709 434.845 356.062 437.186 356.062C439.445 356.062 441.187 357.568 441.187 360.022C441.187 360.192 441.158 360.432 441.144 360.616ZM435.299 359.326H439.086C438.928 358.362 438.2 357.736 437.199 357.736C436.185 357.736 435.457 358.346 435.299 359.326Z" fill="#263238"/>
<path d="M441.926 363.1L442.668 361.51C443.356 361.95 444.397 362.249 445.34 362.249C446.37 362.249 446.756 361.979 446.756 361.553C446.756 360.303 442.113 361.58 442.113 358.53C442.113 357.083 443.429 356.06 445.672 356.06C446.729 356.06 447.901 356.3 448.629 356.727L447.887 358.301C447.129 357.874 446.373 357.734 445.672 357.734C444.671 357.734 444.244 358.047 444.244 358.444C444.244 359.75 448.887 358.487 448.887 361.494C448.887 362.914 447.558 363.921 445.258 363.921C443.956 363.923 442.641 363.567 441.926 363.1Z" fill="#263238"/>
<path d="M449.511 363.1L450.253 361.51C450.941 361.95 451.982 362.249 452.925 362.249C453.955 362.249 454.341 361.979 454.341 361.553C454.341 360.303 449.698 361.58 449.698 358.53C449.698 357.083 451.014 356.06 453.257 356.06C454.314 356.06 455.486 356.3 456.214 356.727L455.472 358.301C454.716 357.874 453.958 357.734 453.257 357.734C452.256 357.734 451.827 358.047 451.827 358.444C451.827 359.75 456.47 358.487 456.47 361.494C456.47 362.914 455.141 363.921 452.841 363.921C451.539 363.923 450.226 363.567 449.511 363.1Z" fill="#263238"/>
<path d="M464.638 359.455V363.81H462.552V362.859C462.137 363.553 461.337 363.923 460.209 363.923C458.409 363.923 457.338 362.93 457.338 361.61C457.338 360.262 458.295 359.326 460.638 359.326H462.408C462.408 358.375 461.837 357.822 460.638 357.822C459.823 357.822 458.98 358.092 458.423 358.532L457.621 356.985C458.464 356.389 459.706 356.062 460.937 356.062C463.281 356.062 464.638 357.139 464.638 359.455ZM462.408 361.396V360.616H460.88C459.837 360.616 459.508 360.999 459.508 361.51C459.508 362.063 459.978 362.433 460.764 362.433C461.508 362.433 462.153 362.093 462.408 361.396Z" fill="#263238"/>
<path d="M474.664 356.175V362.533C474.664 365.37 473.122 366.676 470.349 366.676C468.892 366.676 467.478 366.322 466.578 365.626L467.465 364.036C468.122 364.563 469.194 364.903 470.178 364.903C471.752 364.903 472.437 364.193 472.437 362.816V362.49C471.85 363.129 471.007 363.44 470.009 363.44C467.88 363.44 466.165 361.977 466.165 359.752C466.165 357.525 467.88 356.062 470.009 356.062C471.08 356.062 471.966 356.418 472.551 357.155V356.175H474.664ZM472.462 359.752C472.462 358.629 471.619 357.879 470.448 357.879C469.276 357.879 468.417 358.629 468.417 359.752C468.417 360.872 469.274 361.625 470.448 361.625C471.619 361.625 472.462 360.872 472.462 359.752Z" fill="#263238"/>
<path d="M484.218 360.616H478.403C478.618 361.566 479.431 362.149 480.603 362.149C481.416 362.149 482.003 361.907 482.531 361.412L483.718 362.689C483.003 363.497 481.93 363.923 480.543 363.923C477.885 363.923 476.158 362.263 476.158 359.993C476.158 357.709 477.917 356.062 480.258 356.062C482.517 356.062 484.26 357.568 484.26 360.022C484.262 360.192 484.232 360.432 484.218 360.616ZM478.374 359.326H482.161C482.003 358.362 481.274 357.736 480.274 357.736C479.26 357.736 478.531 358.346 478.374 359.326Z" fill="#263238"/>
<path d="M834.539 592.045H719.836C704.47 592.045 692.013 579.676 692.013 564.416C692.013 549.157 704.47 536.788 719.836 536.788H834.539C849.906 536.788 862.363 549.157 862.363 564.416C862.363 579.673 849.906 592.045 834.539 592.045Z" fill="#3D96FF"/>
<path d="M752.024 568.696L753.089 566.353C754.228 567.179 755.932 567.755 757.556 567.755C759.413 567.755 760.169 567.138 760.169 566.312C760.169 563.797 752.296 565.525 752.296 560.531C752.296 558.245 754.155 556.345 758.002 556.345C759.706 556.345 761.446 556.748 762.704 557.533L761.736 559.896C760.477 559.184 759.182 558.839 757.983 558.839C756.124 558.839 755.409 559.531 755.409 560.377C755.409 562.854 763.282 561.146 763.282 566.081C763.282 568.329 761.407 570.25 757.536 570.25C755.391 570.252 753.224 569.619 752.024 568.696Z" fill="white"/>
<path d="M775.349 565.7H767.478C767.768 566.986 768.869 567.773 770.456 567.773C771.56 567.773 772.352 567.446 773.067 566.775L774.673 568.506C773.704 569.601 772.254 570.175 770.379 570.175C766.782 570.175 764.44 567.93 764.44 564.854C764.44 561.763 766.82 559.533 769.993 559.533C773.049 559.533 775.408 561.568 775.408 564.893C775.408 565.124 775.369 565.451 775.349 565.7ZM767.439 563.952H772.565C772.35 562.645 771.366 561.799 770.011 561.799C768.638 561.799 767.652 562.627 767.439 563.952Z" fill="white"/>
<path d="M788.059 564.106V570.021H785.042V564.566C785.042 562.897 784.267 562.128 782.934 562.128C781.481 562.128 780.437 563.013 780.437 564.913V570.023H777.42V559.69H780.302V560.899C781.115 560.014 782.335 559.533 783.747 559.533C786.2 559.533 788.059 560.955 788.059 564.106Z" fill="white"/>
<path d="M801.5 555.769V570.021H798.616V568.83C797.862 569.733 796.759 570.175 795.368 570.175C792.426 570.175 790.165 568.102 790.165 564.854C790.165 561.609 792.426 559.533 795.368 559.533C796.645 559.533 797.727 559.937 798.481 560.783V555.769H801.5ZM798.543 564.854C798.543 563.069 797.38 561.992 795.893 561.992C794.384 561.992 793.223 563.069 793.223 564.854C793.223 566.641 794.384 567.716 795.893 567.716C797.38 567.716 798.543 566.641 798.543 564.854Z" fill="white"/>
<path d="M415.861 78.5291C415.84 78.6765 413.983 78.164 410.605 78.3023C407.291 78.4452 402.234 79.5475 397.664 83.4643C395.423 85.4102 393.315 88.0094 391.997 91.2413C390.705 94.455 389.997 98.2381 390.59 102.107C390.83 104.042 391.404 105.983 392.258 107.834C393.085 109.701 394.229 111.479 395.661 113.05C398.457 116.262 402.438 118.591 406.85 119.589C411.283 120.505 415.881 120.034 419.768 118.267C421.728 117.43 423.514 116.285 425.049 114.928C426.602 113.597 427.938 112.071 428.966 110.408C431.129 107.133 432.07 103.4 432.239 99.9436C432.392 96.4599 431.563 93.2258 430.341 90.5314C427.824 85.0814 423.688 81.9901 420.735 80.4932C417.722 78.9737 415.819 78.672 415.861 78.5291C415.861 78.5291 417.795 78.6561 420.938 80.0804C424.017 81.4843 428.381 84.5575 431.102 90.1776C432.424 92.9559 433.338 96.3216 433.224 99.9731C433.091 103.595 432.141 107.521 429.893 110.989C428.822 112.744 427.427 114.364 425.798 115.776C424.188 117.214 422.311 118.43 420.244 119.321C416.146 121.199 411.279 121.714 406.597 120.741C401.935 119.691 397.723 117.214 394.786 113.812C393.281 112.148 392.084 110.268 391.223 108.294C390.332 106.337 389.743 104.289 389.505 102.25C388.914 98.17 389.693 94.2056 391.091 90.858C392.514 87.49 394.756 84.807 397.123 82.827C401.951 78.8376 407.207 77.8465 410.594 77.8419C414.049 77.8465 415.861 78.5291 415.861 78.5291Z" fill="#3D96FF"/>
<path d="M403.835 79.493C404.125 79.3411 408.745 87.5535 414.152 97.8344C419.56 108.117 423.706 116.573 423.416 116.722C423.126 116.874 418.505 108.662 413.097 98.3809C407.69 88.1024 403.543 79.645 403.835 79.493Z" fill="#3D96FF"/>
<path d="M408.194 78.2615C408.484 78.1096 412.967 86.0635 418.207 96.0223C423.446 105.986 427.457 114.18 427.164 114.332C426.874 114.482 422.391 106.532 417.151 96.5688C411.914 86.61 407.903 78.4135 408.194 78.2615Z" fill="#3D96FF"/>
<path d="M413.234 78.3251C413.526 78.1731 417.489 85.1404 422.089 93.8836C426.689 102.629 430.181 109.839 429.889 109.991C429.599 110.143 425.634 103.176 421.034 94.4301C416.434 85.687 412.942 78.4748 413.234 78.3251Z" fill="#3D96FF"/>
<path d="M418.667 79.1369C418.96 78.985 422.201 84.5779 425.905 91.6246C429.612 98.6735 432.38 104.509 432.09 104.659C431.8 104.811 428.559 99.2201 424.852 92.1711C421.146 85.1245 418.377 79.2889 418.667 79.1369Z" fill="#3D96FF"/>
<path d="M399.914 81.9946C400.206 81.8427 404.824 90.0551 410.231 100.336C415.639 110.619 419.785 119.074 419.494 119.224C419.204 119.376 414.584 111.166 409.175 100.883C403.771 90.6017 399.624 82.1443 399.914 81.9946Z" fill="#3D96FF"/>
<path d="M395.992 84.494C396.284 84.3421 400.902 92.5545 406.309 102.835C411.717 113.118 415.863 121.574 415.573 121.723C415.28 121.873 410.662 113.663 405.253 103.382C399.85 93.1033 395.702 84.646 395.992 84.494Z" fill="#3D96FF"/>
<path d="M392.845 88.4653C393.137 88.3133 397.155 95.385 401.823 104.257C406.492 113.132 410.039 120.449 409.746 120.598C409.456 120.748 405.436 113.679 400.768 104.804C396.102 95.9338 392.555 88.6173 392.845 88.4653Z" fill="#3D96FF"/>
<path d="M390.51 93.9811C390.803 93.8291 394.023 99.3834 397.703 106.38C401.384 113.382 404.134 119.179 403.842 119.328C403.552 119.48 400.331 113.928 396.65 106.927C392.968 99.93 390.22 94.133 390.51 93.9811Z" fill="#3D96FF"/>
<path d="M584.009 564.305C583.881 564.382 583.102 562.634 580.85 560.13C578.637 557.678 574.57 554.496 568.62 553.473C565.682 552.988 562.323 553.022 558.97 554.058C555.649 555.104 552.255 556.961 549.619 559.874C548.265 561.284 547.12 562.956 546.22 564.788C545.293 566.607 544.635 568.612 544.32 570.708C543.594 574.89 544.309 579.424 546.332 583.445C548.431 587.428 551.716 590.657 555.56 592.521C557.455 593.494 559.479 594.139 561.507 594.456C563.529 594.803 565.566 594.86 567.51 594.594C571.429 594.177 574.933 592.528 577.731 590.467C580.54 588.373 582.531 585.686 583.852 583.037C586.496 577.646 586.277 572.511 585.569 569.293C584.845 566.013 583.872 564.362 584.009 564.305C584.009 564.305 585.138 565.87 586.024 569.188C586.885 572.441 587.264 577.741 584.615 583.395C583.29 586.173 581.25 589.011 578.336 591.238C575.433 593.435 571.774 595.198 567.649 595.672C565.602 595.964 563.458 595.921 561.322 595.567C559.182 595.243 557.044 594.574 555.039 593.556C550.978 591.603 547.488 588.192 545.275 583.982C543.135 579.739 542.39 574.933 543.171 570.522C543.514 568.311 544.217 566.199 545.204 564.285C546.163 562.359 547.383 560.606 548.82 559.13C551.62 556.086 555.199 554.17 558.691 553.117C562.215 552.074 565.726 552.092 568.77 552.65C574.939 553.825 579.046 557.229 581.2 559.826C583.39 562.482 584.009 564.305 584.009 564.305Z" fill="#3D96FF"/>
<path d="M575.627 555.687C575.929 555.814 572.468 564.571 567.898 575.242C563.328 585.917 559.376 594.465 559.075 594.336C558.773 594.209 562.234 585.454 566.804 574.779C571.374 564.108 575.326 555.558 575.627 555.687Z" fill="#3D96FF"/>
<path d="M579.352 558.25C579.653 558.377 576.309 566.864 571.881 577.203C567.452 587.545 563.617 595.824 563.316 595.697C563.014 595.57 566.358 587.083 570.787 576.741C575.213 566.403 579.05 558.123 579.352 558.25Z" fill="#3D96FF"/>
<path d="M582.502 562.157C582.803 562.284 579.898 569.748 576.011 578.825C572.123 587.906 568.727 595.159 568.423 595.032C568.119 594.905 571.027 587.443 574.914 578.362C578.802 569.286 582.198 562.03 582.502 562.157Z" fill="#3D96FF"/>
<path d="M585.318 566.843C585.619 566.97 583.326 573.005 580.193 580.322C577.059 587.641 574.275 593.467 573.971 593.34C573.669 593.213 575.963 587.178 579.096 579.862C582.23 572.545 585.014 566.716 585.318 566.843Z" fill="#3D96FF"/>
<path d="M571.194 554.263C571.495 554.39 568.035 563.146 563.464 573.817C558.892 584.493 554.943 593.041 554.641 592.914C554.34 592.787 557.798 584.032 562.37 573.357C566.941 562.686 570.89 554.136 571.194 554.263Z" fill="#3D96FF"/>
<path d="M566.758 552.841C567.059 552.968 563.599 561.724 559.029 572.395C554.456 583.071 550.507 591.619 550.206 591.49C549.904 591.363 553.362 582.608 557.935 571.933C562.505 561.264 566.456 552.714 566.758 552.841Z" fill="#3D96FF"/>
<path d="M561.672 552.945C561.973 553.072 559.02 560.645 555.076 569.857C551.129 579.072 547.687 586.436 547.385 586.307C547.084 586.18 550.035 578.61 553.982 569.395C557.926 560.182 561.37 552.818 561.672 552.945Z" fill="#3D96FF"/>
<path d="M555.896 554.655C556.197 554.782 553.92 560.779 550.809 568.045C547.696 575.314 544.928 581.102 544.626 580.973C544.325 580.846 546.602 574.851 549.715 567.583C552.826 560.316 555.594 554.526 555.896 554.655Z" fill="#3D96FF"/>
<path d="M900.649 132.494C900.443 132.514 900.71 129.019 899.196 123.036C898.488 120.043 897.058 116.507 894.815 112.767C892.556 109.041 889.308 105.153 884.896 101.856C880.497 98.5919 874.954 95.8181 868.561 94.7022C862.211 93.6272 855.049 93.8313 848.231 96.41C844.798 97.5962 841.491 99.3856 838.451 101.647C836.879 102.72 835.507 104.062 834.068 105.353C832.768 106.784 831.402 108.183 830.283 109.805C825.528 116.087 822.846 124.164 822.769 132.487C822.844 140.813 825.523 148.892 830.281 155.178C831.4 156.802 832.768 158.202 834.068 159.633C835.507 160.923 836.879 162.266 838.451 163.339C841.491 165.6 844.8 167.392 848.233 168.576C855.051 171.154 862.216 171.358 868.565 170.283C874.958 169.167 880.501 166.394 884.9 163.13C889.313 159.835 892.561 155.945 894.82 152.219C897.06 148.477 898.492 144.943 899.198 141.949C900.71 135.968 900.443 132.476 900.649 132.494C900.669 132.494 900.678 132.707 900.678 133.127C900.669 133.612 900.658 134.224 900.644 134.984C900.642 135.803 900.596 136.814 900.393 137.996C900.231 139.182 900.078 140.561 899.648 142.06C899 145.106 897.615 148.717 895.391 152.557C893.148 156.378 889.884 160.384 885.41 163.795C880.949 167.174 875.296 170.061 868.746 171.247C862.243 172.393 854.886 172.222 847.858 169.601C844.323 168.394 840.911 166.564 837.775 164.246C836.155 163.146 834.735 161.769 833.252 160.442C831.909 158.975 830.5 157.535 829.342 155.866C824.431 149.402 821.654 141.069 821.581 132.489C821.656 123.914 824.436 115.584 829.347 109.122C830.505 107.455 831.914 106.015 833.257 104.548C834.739 103.221 836.16 101.844 837.779 100.744C840.915 98.4263 844.327 96.5983 847.863 95.3917C854.889 92.7699 862.245 92.5975 868.748 93.7429C875.296 94.929 880.951 97.8162 885.412 101.193C889.886 104.604 893.15 108.607 895.393 112.429C897.618 116.266 899.004 119.879 899.65 122.925C900.082 124.427 900.235 125.803 900.395 126.989C900.598 128.171 900.644 129.183 900.646 130.004C900.66 130.763 900.671 131.376 900.681 131.861C900.678 132.281 900.669 132.494 900.649 132.494Z" fill="#3D96FF"/>
<path d="M894.233 111.531C894.443 111.78 881.324 123.005 864.931 136.597C848.535 150.193 835.077 161.01 834.865 160.76C834.655 160.511 847.772 149.289 864.169 135.692C880.561 122.1 894.023 111.281 894.233 111.531Z" fill="#3D96FF"/>
<path d="M898.146 118.786C898.356 119.038 885.65 129.917 869.769 143.088C853.884 156.263 840.838 166.734 840.628 166.484C840.417 166.235 853.121 155.355 869.006 142.183C884.889 129.01 897.935 118.537 898.146 118.786Z" fill="#3D96FF"/>
<path d="M899.996 127.752C900.206 128.003 889.071 137.579 875.13 149.141C861.184 160.706 849.711 169.875 849.501 169.626C849.291 169.376 860.421 159.801 874.367 148.236C888.308 136.674 899.786 127.502 899.996 127.752Z" fill="#3D96FF"/>
<path d="M900.648 137.71C900.858 137.96 891.919 145.719 880.681 155.036C869.442 164.357 860.162 171.708 859.952 171.456C859.742 171.206 868.679 163.45 879.919 154.128C891.156 144.811 900.438 137.461 900.648 137.71Z" fill="#3D96FF"/>
<path d="M888.207 105.548C888.417 105.797 875.298 117.022 858.908 130.616C842.511 144.213 829.051 155.029 828.841 154.779C828.631 154.53 841.748 143.308 858.145 129.711C874.535 116.117 887.997 105.298 888.207 105.548Z" fill="#3D96FF"/>
<path d="M882.182 99.5648C882.392 99.8143 869.273 111.039 852.881 124.633C836.484 138.23 823.024 149.046 822.814 148.796C822.604 148.547 835.721 137.325 852.118 123.726C868.51 110.134 881.972 99.3153 882.182 99.5648Z" fill="#3D96FF"/>
<path d="M873.814 95.5255C874.024 95.775 862.723 105.491 848.576 117.223C834.422 128.96 822.782 138.268 822.572 138.019C822.362 137.769 833.661 128.053 847.813 116.319C861.96 104.586 873.604 95.276 873.814 95.5255Z" fill="#3D96FF"/>
<path d="M862.978 93.532C863.188 93.7814 854.311 101.49 843.151 110.744C831.987 120.002 822.768 127.302 822.558 127.051C822.348 126.801 831.224 119.095 842.388 109.837C853.548 100.583 862.768 93.2825 862.978 93.532Z" fill="#3D96FF"/>
<path d="M819.526 81.6908C823.556 81.6908 826.823 78.4465 826.823 74.4445C826.823 70.4425 823.556 67.1982 819.526 67.1982C815.496 67.1982 812.229 70.4425 812.229 74.4445C812.229 78.4465 815.496 81.6908 819.526 81.6908Z" fill="#3D96FF"/>
<path d="M616.099 551.736C616.099 555.739 612.83 558.985 608.801 558.985C604.77 558.985 601.504 555.739 601.504 551.736C601.504 547.733 604.772 544.487 608.801 544.487C612.833 544.487 616.099 547.733 616.099 551.736Z" fill="#3D96FF"/>
<path d="M270.446 167.836C268.906 156.383 258.642 146.685 247.044 145.728C244.001 145.476 240.849 145.75 237.983 144.714C235.633 143.863 233.682 142.203 231.481 141.024C224.418 137.241 214.743 139.246 209.796 145.521C205.141 151.425 203.248 143.21 192.269 149.692C183.174 155.063 187.918 162.531 187.918 162.531C178.531 162.137 169.413 169.356 167.711 178.532C166.631 184.359 167.825 191.451 163.253 195.254C161.035 197.098 157.947 197.606 155.659 199.361C151.403 202.623 151.255 208.919 152.217 214.169C153.176 219.42 154.827 224.965 152.863 229.932C149.645 238.076 137.967 241.308 136.525 249.94C135.845 254.016 137.572 258.901 134.712 261.904C133.563 263.11 131.914 263.673 130.414 264.403C124.334 267.365 120.163 273.854 120.021 280.579C119.88 287.303 123.769 293.96 129.719 297.173C131.38 298.072 133.353 298.897 133.988 300.664C134.696 302.635 133.378 304.681 132.437 306.554C128.988 313.403 130.681 322.434 136.379 327.594C142.078 332.754 151.292 333.593 157.84 329.551C161.339 335.761 167.369 340.517 174.253 342.497C177.423 343.409 180.86 343.74 184.005 342.751C186.527 341.96 188.715 340.372 190.707 338.646C200.208 330.427 213.533 317.851 214.41 305.368" fill="#263238"/>
<path d="M183.062 213.45C183.066 213.577 181.374 213.788 178.663 213.394C175.963 213.01 172.272 211.863 168.739 209.604C165.212 207.331 162.643 204.46 161.183 202.172C159.708 199.879 159.208 198.259 159.326 198.212C159.505 198.125 160.272 199.597 161.871 201.691C163.46 203.786 166.007 206.433 169.385 208.61C172.77 210.772 176.246 211.994 178.823 212.573C181.401 213.162 183.066 213.253 183.062 213.45Z" fill="#455A64"/>
<path d="M189.425 184.776C189.521 184.869 188.564 186.091 186.573 187.604C184.595 189.117 181.5 190.813 177.775 191.761C174.045 192.698 170.509 192.68 168.042 192.29C165.564 191.907 164.135 191.29 164.176 191.16C164.224 190.782 170.269 192.505 177.482 190.614C184.723 188.852 189.204 184.465 189.425 184.776Z" fill="#455A64"/>
<path d="M142.745 326.775C142.74 326.796 142.606 326.775 142.35 326.717C142.092 326.662 141.713 326.565 141.228 326.39C140.267 326.043 138.844 325.435 137.286 324.233C135.729 323.054 134.027 321.255 132.803 318.729C131.581 316.218 130.998 312.9 131.713 309.428C132.058 307.697 132.718 305.928 133.753 304.284C134.756 302.605 136.256 301.192 137.766 299.845C139.264 298.487 140.886 297.13 141.916 295.368C142.967 293.629 143.067 291.415 142.103 289.49C141.174 287.539 139.552 285.843 138.031 283.981C137.268 283.046 136.507 282.062 135.888 280.944C135.285 279.803 134.87 278.562 134.666 277.272C133.945 272.151 136.58 266.336 141.747 263.959C144.346 262.818 147.05 262.779 149.469 262.185C150.68 261.904 151.824 261.48 152.749 260.795C153.656 260.096 154.345 259.153 154.649 258.064C155.289 255.871 154.72 253.449 153.884 251.321C153.007 249.187 151.778 247.146 150.963 244.955C150.122 242.794 149.748 240.315 150.497 238.106C151.205 235.899 152.753 234.187 154.405 232.921C157.783 230.351 161.666 229.467 164.941 228.505C168.248 227.566 171.185 226.448 173.259 224.743C175.306 223.033 176.375 220.826 176.74 219.007C177.119 217.161 176.772 215.666 176.329 214.786C175.897 213.886 175.482 213.521 175.543 213.471C175.543 213.471 176.018 213.775 176.541 214.677C177.073 215.557 177.523 217.129 177.195 219.091C176.875 221.025 175.833 223.364 173.691 225.246C171.532 227.106 168.499 228.308 165.183 229.306C161.878 230.326 158.148 231.247 155.01 233.697C153.471 234.901 152.096 236.48 151.495 238.419C150.858 240.353 151.18 242.522 151.988 244.574C152.774 246.656 153.987 248.636 154.939 250.906C155.823 253.158 156.506 255.755 155.766 258.395C155.405 259.704 154.556 260.888 153.459 261.727C152.345 262.555 151.034 263.024 149.745 263.328C147.176 263.945 144.513 264.015 142.238 265.034C137.64 267.111 135.16 272.489 135.82 277.106C136 278.267 136.37 279.374 136.898 280.393C137.453 281.411 138.17 282.352 138.912 283.268C140.388 285.103 142.06 286.838 143.097 289.029C144.193 291.2 144.054 293.93 142.82 295.888C141.628 297.868 139.927 299.228 138.424 300.573C136.898 301.909 135.489 303.206 134.529 304.767C133.538 306.298 132.89 307.96 132.538 309.595C131.811 312.877 132.3 316.03 133.408 318.45C134.523 320.89 136.108 322.675 137.579 323.872C140.571 326.279 142.818 326.628 142.745 326.775Z" fill="#455A64"/>
<path d="M379.781 894.354H133.767V907.331H379.781V894.354Z" fill="#E0E0E0"/>
<path d="M379.783 907.331C379.783 907.331 379.76 907.05 379.749 906.515C379.74 905.941 379.726 905.152 379.708 904.104C379.685 901.931 379.651 898.713 379.605 894.354L379.783 894.531C347.885 894.771 249.719 894.943 133.78 894.943H133.769L134.363 894.354C134.363 898.799 134.363 903.217 134.363 907.331L133.769 906.742C202.255 906.839 263.662 906.925 308.002 906.987C330.177 907.061 348.079 907.123 360.486 907.166C366.652 907.202 371.453 907.229 374.758 907.25C376.366 907.268 377.602 907.281 378.486 907.29C379.329 907.302 379.783 907.331 379.783 907.331C379.783 907.331 379.386 907.358 378.568 907.372C377.702 907.381 376.492 907.395 374.918 907.413C371.643 907.433 366.89 907.461 360.783 907.497C348.408 907.54 330.552 907.599 308.438 907.674C263.989 907.737 202.426 907.823 133.767 907.919H133.173V907.327C133.173 903.215 133.173 898.795 133.173 894.349V893.76H133.769H133.78C249.719 893.76 347.885 893.934 379.783 894.172L379.964 894.175L379.961 894.351C379.916 898.756 379.881 902.008 379.859 904.204C379.84 905.233 379.827 906.009 379.817 906.574C379.804 907.093 379.792 907.34 379.783 907.331Z" fill="#263238"/>
<path d="M159.53 669.502L107.601 1017.91H124.92L171.92 674.049V669.502H159.53Z" fill="#E0E0E0"/>
<path d="M159.53 669.502C159.53 669.502 160.48 669.463 162.515 669.438C164.598 669.42 167.698 669.393 171.921 669.357L172.067 669.355V669.502C172.074 670.87 172.083 672.396 172.09 674.049V674.061L172.087 674.072C166.471 716.967 147.831 854.664 125.507 1018L125.437 1018.51H124.916C124.043 1018.51 123.093 1018.51 122.145 1018.51C117.162 1018.51 112.201 1018.51 107.596 1018.51H106.911L107.012 1017.83C121.561 920.833 134.634 833.685 144.074 770.75C148.827 739.375 152.667 714.041 155.321 696.514C156.657 687.812 157.694 681.053 158.404 676.433C158.76 674.172 159.034 672.441 159.224 671.239C159.413 670.076 159.53 669.502 159.53 669.502C159.53 669.502 159.466 670.135 159.304 671.33C159.133 672.552 158.886 674.31 158.562 676.608C157.888 681.262 156.903 688.07 155.636 696.838C153.059 714.406 149.339 739.801 144.727 771.249C135.422 834.1 122.534 921.134 108.19 1018L107.603 1017.32C112.208 1017.32 117.169 1017.32 122.152 1017.32C123.1 1017.32 124.05 1017.32 124.923 1017.32L124.333 1017.84C146.66 854.505 165.653 716.856 171.754 674.024L171.752 674.047C171.761 672.394 171.768 670.867 171.774 669.5L171.921 669.645C167.732 669.609 164.658 669.581 162.593 669.563C160.546 669.538 159.53 669.502 159.53 669.502Z" fill="#263238"/>
<path d="M353.951 669.502L406.981 1017.91H389.659L341.561 674.049V669.502H353.951Z" fill="#E0E0E0"/>
<path d="M353.951 669.502C353.951 669.502 352.935 669.541 350.888 669.565C348.823 669.584 345.749 669.611 341.56 669.647L341.706 669.502C341.713 670.87 341.722 672.396 341.729 674.049L341.727 674.027C347.962 716.849 367.399 854.498 390.248 1017.84L389.659 1017.32C390.534 1017.32 391.484 1017.32 392.436 1017.32C397.418 1017.32 402.376 1017.32 406.979 1017.32L406.392 1018C391.742 921.134 378.577 834.1 369.071 771.249C364.361 739.799 360.559 714.406 357.93 696.836C356.635 688.068 355.627 681.259 354.94 676.605C354.609 674.308 354.358 672.548 354.182 671.328C354.017 670.135 353.951 669.502 353.951 669.502C353.951 669.502 354.07 670.076 354.262 671.239C354.456 672.441 354.734 674.172 355.098 676.433C355.822 681.053 356.881 687.809 358.245 696.514C360.956 714.041 364.873 739.375 369.727 770.75C379.365 833.685 392.713 920.833 407.57 1017.83L407.675 1018.51H406.983C402.381 1018.51 397.422 1018.51 392.441 1018.51C391.491 1018.51 390.541 1018.51 389.664 1018.51H389.145L389.074 1018C366.23 854.659 347.147 716.96 341.396 674.072L341.394 674.058V674.047C341.403 672.394 341.41 670.867 341.416 669.5V669.352L341.563 669.355C345.786 669.391 348.885 669.418 350.968 669.436C353.001 669.463 353.951 669.502 353.951 669.502Z" fill="#263238"/>
<path d="M258.528 669.502H243.726V1017.92H258.528V669.502Z" fill="#E0E0E0"/>
<path d="M258.528 1017.91C258.528 1017.91 258.501 1017.28 258.487 1016.09C258.478 1014.87 258.464 1013.11 258.446 1010.82C258.427 1006.16 258.398 999.355 258.361 990.592C258.318 973.026 258.256 947.638 258.181 916.197C258.119 853.357 258.032 766.343 257.934 669.502L258.528 670.092C253.848 670.092 248.807 670.092 243.741 670.092H243.725L244.319 669.502C244.319 836.325 244.134 976.836 243.883 1017.92L243.723 1017.76C248.762 1017.8 252.439 1017.83 254.892 1017.85C256.091 1017.86 256.986 1017.88 257.617 1017.88C258.22 1017.9 258.528 1017.91 258.528 1017.91C258.528 1017.91 258.258 1017.93 257.674 1017.94C257.052 1017.95 256.171 1017.96 254.988 1017.98C252.514 1018 248.807 1018.03 243.728 1018.07L243.568 1018.08V1017.91C243.317 976.834 243.134 836.322 243.134 669.5V668.91H243.728H243.744C248.807 668.91 253.848 668.91 258.53 668.91H259.124V669.5C259.028 766.513 258.941 853.682 258.877 916.632C258.802 948.017 258.74 973.355 258.697 990.889C258.66 999.593 258.631 1006.35 258.612 1010.98C258.594 1013.24 258.58 1014.97 258.571 1016.17C258.558 1017.34 258.528 1017.91 258.528 1017.91Z" fill="#263238"/>
<path d="M356.89 646.216H153.822V672.414H356.89V646.216Z" fill="#455A64"/>
<path d="M215.835 646.976C215.835 646.976 213.261 649.637 208.43 653.152C206.028 654.923 203.011 656.819 199.537 658.706C196.038 660.541 192.066 662.335 187.751 663.834C183.421 665.295 179.182 666.313 175.285 667.012C171.379 667.654 167.826 668.005 164.834 668.082C158.847 668.27 155.17 667.751 155.17 667.751C155.172 667.735 155.403 667.731 155.844 667.74C156.422 667.758 157.052 667.778 157.765 667.801C159.43 667.889 161.846 667.885 164.82 667.747C167.798 667.629 171.329 667.241 175.21 666.581C179.079 665.864 183.291 664.839 187.596 663.387C191.885 661.895 195.837 660.126 199.329 658.323C202.794 656.468 205.815 654.61 208.232 652.882C210.66 651.17 212.567 649.693 213.821 648.605C214.367 648.151 214.851 647.747 215.294 647.38C215.639 647.103 215.824 646.963 215.835 646.976Z" fill="#263238"/>
<path d="M244.896 664.193C244.896 664.193 244.72 664.131 244.394 663.991C244.063 663.857 243.588 663.619 242.941 663.369C241.646 662.882 239.696 662.224 237.101 661.861C234.518 661.521 231.265 661.414 227.654 662.215C224.055 662.968 220.074 664.626 216.536 667.57L216.461 667.25C222.945 668.819 230.585 669.881 238.903 669.661C243.06 669.575 247.372 669.144 251.762 668.384C253.932 667.951 256.239 667.667 258.157 666.517C259.098 665.948 259.891 665.1 260.231 664.059C260.587 663.025 260.505 661.857 260.115 660.806C259.231 658.239 256.734 656.692 254.206 656.044C251.655 655.334 248.989 655.232 246.42 654.969C241.256 654.608 236.245 654.758 231.517 655.27C222.047 656.277 213.752 658.799 207.151 661.623C200.523 664.433 195.546 667.517 192.246 669.799C190.567 670.906 189.347 671.886 188.5 672.518C187.655 673.156 187.193 673.473 187.193 673.473C187.193 673.473 187.611 673.108 188.44 672.446C189.27 671.788 190.473 670.783 192.141 669.649C195.418 667.316 200.383 664.179 207.021 661.319C213.631 658.445 221.954 655.876 231.471 654.839C236.222 654.313 241.26 654.152 246.456 654.51C249.044 654.774 251.703 654.869 254.336 655.595C255.643 655.955 256.94 656.493 258.064 657.323C259.194 658.153 260.078 659.321 260.565 660.65C260.983 661.777 261.083 663.054 260.686 664.213C260.304 665.381 259.42 666.313 258.411 666.921C256.353 668.146 254.023 668.409 251.847 668.847C247.434 669.606 243.094 670.033 238.917 670.11C230.555 670.314 222.881 669.221 216.374 667.613L216.017 667.524L216.298 667.293C219.907 664.32 223.95 662.666 227.595 661.931C231.252 661.149 234.534 661.287 237.133 661.662C239.746 662.061 241.696 662.752 242.985 663.276C244.255 663.834 244.896 664.193 244.896 664.193Z" fill="#263238"/>
<path d="M271.193 646.89C271.193 646.89 271.707 646.929 272.566 647.269C273.42 647.602 274.605 648.28 275.761 649.466C276.898 650.653 277.988 652.37 278.483 654.506C278.99 656.636 278.794 659.124 277.908 661.476C276.108 666.279 272.056 669.096 269.142 670.434C267.653 671.124 266.387 671.527 265.503 671.763C265.06 671.879 264.715 671.96 264.478 672.004C264.24 672.049 264.117 672.065 264.112 672.049C264.103 672.01 264.588 671.874 265.449 671.586C266.31 671.298 267.545 670.849 268.993 670.132C271.832 668.733 275.724 665.95 277.46 661.308C278.317 659.035 278.515 656.645 278.054 654.601C277.602 652.549 276.583 650.87 275.514 649.696C273.303 647.305 271.115 647.003 271.193 646.89Z" fill="#263238"/>
<path d="M302.988 646.774C303.027 646.87 301.152 647.378 298.539 649.004C295.921 650.598 292.705 653.467 290.024 657.302C287.34 661.14 285.547 665.014 284.261 667.799C283.727 668.978 283.229 670.076 282.754 671.117C282.393 671.899 282.181 672.326 282.151 672.314C282.121 672.303 282.277 671.852 282.583 671.047C282.891 670.241 283.35 669.085 283.951 667.665C285.164 664.839 286.915 660.918 289.633 657.033C292.349 653.147 295.661 650.263 298.363 648.72C299.708 647.936 300.868 647.43 301.688 647.146C302.093 646.99 302.424 646.91 302.643 646.845C302.865 646.783 302.983 646.759 302.988 646.774Z" fill="#263238"/>
<path d="M338.065 662.278C338.065 662.278 337.656 662.104 336.889 661.761C336.112 661.442 334.952 660.988 333.397 660.636C330.345 659.945 325.43 659.613 320.252 662.088C319.629 662.394 318.989 662.777 318.612 663.356C318.224 663.93 318.313 664.719 318.829 665.24C319.864 666.3 321.547 666.706 323.089 667.295C326.259 668.379 329.783 669.162 333.541 669.477C337.295 669.797 341.286 669.661 345.317 668.899C347.299 668.513 349.371 667.912 350.933 666.563C352.541 665.243 353.037 662.911 352.219 660.958C351.475 658.963 349.759 657.529 347.891 656.62C346.009 655.701 343.972 655.159 341.982 654.687C337.985 653.782 333.997 653.494 330.236 653.735C322.682 654.177 316.155 656.695 311.329 659.684C306.466 662.682 303.209 666.039 301.158 668.456C300.146 669.686 299.409 670.679 298.927 671.366C298.449 672.056 298.18 672.407 298.18 672.407C298.18 672.407 299.022 670.847 301.016 668.341C303.033 665.875 306.272 662.458 311.153 659.4C315.995 656.35 322.58 653.769 330.211 653.299C334.011 653.045 338.042 653.327 342.087 654.236C344.102 654.712 346.153 655.252 348.103 656.2C350.029 657.13 351.867 658.652 352.665 660.791C353.064 661.838 353.21 663 352.961 664.104C352.717 665.209 352.078 666.191 351.251 666.916C349.565 668.366 347.43 668.962 345.406 669.357C341.329 670.119 337.295 670.248 333.506 669.912C329.713 669.584 326.159 668.778 322.963 667.667C322.162 667.397 321.39 667.091 320.631 666.787C319.873 666.481 319.119 666.1 318.558 665.483C317.957 664.889 317.831 663.848 318.318 663.17C318.772 662.489 319.46 662.104 320.108 661.789C325.403 659.31 330.377 659.706 333.445 660.457C336.571 661.251 338.065 662.278 338.065 662.278Z" fill="#263238"/>
<path d="M206.416 313.131C206.416 313.131 195.423 316.61 188.722 328.399C182.08 340.082 183.852 345.852 185.59 352.753C187.328 359.655 190.389 373.358 190.56 372.476C190.732 371.593 206.416 313.131 206.416 313.131Z" fill="#A36957"/>
<path d="M207.158 313.131L221.129 304.896L286.109 280.758L273.353 389.211L225.391 419.199L196.971 405.08L194.128 373.689L207.158 313.131Z" fill="#A36957"/>
<path d="M205.454 478.173L180.065 510.892L148.598 503.539L123.424 517.51L130.086 529.274L196.884 533.721L220.418 485.526L205.454 478.173Z" fill="#7C3B29"/>
<path d="M128.399 792.124L154.021 847.266L195.369 828.298L168.865 760.054L128.399 792.124Z" fill="#A36957"/>
<path d="M149.179 843.585L164.148 871.93C164.148 871.93 125.829 911.273 129.429 920.068L219.51 877.18L194.763 820.322L149.179 843.585Z" fill="#3D96FF"/>
<path d="M190.134 854.793C192.105 854.437 194.249 855.809 194.69 857.75C195.131 859.692 193.742 861.869 191.778 862.262C189.814 862.654 187.187 861.082 186.97 859.104C186.753 857.127 188.521 854.657 190.524 854.745" fill="#E0E0E0"/>
<g opacity="0.6">
<path d="M219.51 877.183L215.762 870.052L130.795 913.838C130.795 913.838 127.62 917.481 129.429 920.068L219.51 877.183Z" fill="white"/>
</g>
<path d="M162.47 872.17C162.696 872.601 164.991 871.751 167.833 872.125C170.685 872.424 172.714 873.785 173.036 873.42C173.401 873.141 171.483 870.844 168.034 870.451C164.589 870.029 162.18 871.817 162.47 872.17Z" fill="#263238"/>
<path d="M154.895 880.551C154.998 881.022 157.262 880.857 159.648 881.993C162.067 883.059 163.41 884.878 163.837 884.651C164.283 884.524 163.353 881.821 160.359 880.464C157.378 879.081 154.704 880.129 154.895 880.551Z" fill="#263238"/>
<path d="M154.951 894.333C155.396 894.236 154.953 891.761 152.669 889.908C150.396 888.037 147.868 888.08 147.857 888.534C147.781 889.013 149.736 889.659 151.589 891.21C153.478 892.716 154.494 894.499 154.951 894.333Z" fill="#263238"/>
<path d="M158.173 861.252C158.55 861.563 160.277 859.998 162.844 858.982C165.391 857.914 167.725 857.821 167.773 857.338C167.876 856.9 165.206 856.183 162.197 857.422C159.183 858.637 157.792 861.012 158.173 861.252Z" fill="#263238"/>
<path d="M155.529 855.587C155.463 855.614 155.086 855.011 154.704 853.788C154.334 852.573 153.985 850.702 154.275 848.395C154.36 847.826 154.428 847.22 154.704 846.567C154.958 845.927 155.595 845.22 156.502 845.127C156.943 845.063 157.493 845.222 157.838 845.583C158.197 845.943 158.334 846.404 158.393 846.807C158.496 847.644 158.373 848.336 158.35 849.078C158.229 850.59 158.229 852.04 157.986 853.797C157.868 854.693 157.128 855.746 156.12 856.04C155.15 856.372 154.193 856.294 153.297 856.154C151.546 855.854 149.885 855.351 148.35 854.702C147.583 854.376 146.847 854.013 146.149 853.623C145.475 853.226 144.728 852.854 144.152 852.124C143.59 851.423 143.378 850.246 144.1 849.452C144.849 848.681 145.813 848.771 146.498 848.883C147.946 849.227 148.994 849.797 150.038 850.33C152.066 851.427 153.492 852.643 154.396 853.537C155.296 854.439 155.696 855.024 155.641 855.074C155.492 855.24 153.645 853.042 149.652 851.073C148.679 850.62 147.48 850.076 146.331 849.849C145.756 849.756 145.128 849.819 144.883 850.139C144.602 850.427 144.664 851.026 145.018 851.459C145.374 851.913 146.025 852.267 146.697 852.636C147.366 852.997 148.067 853.335 148.798 853.636C150.26 854.237 151.843 854.707 153.492 854.99C154.284 855.122 155.09 855.156 155.718 854.936C156.349 854.718 156.703 854.255 156.842 853.559C157.055 852.121 157.112 850.445 157.251 849.005C157.297 848.268 157.418 847.515 157.352 846.95C157.281 846.356 157.018 846.077 156.593 846.109C155.611 846.172 155.269 847.479 155.102 848.527C154.407 852.877 155.769 855.551 155.529 855.587Z" fill="#263238"/>
<path d="M127.819 811.059L62.5537 649.791C62.5537 649.791 64.0726 621.155 69.3851 612.11C74.6977 603.068 235.585 550.316 235.585 550.316C235.585 550.316 276.567 540.518 303.886 550.316C331.207 560.112 351.697 594.025 347.903 612.863C344.109 631.703 328.096 645.543 328.096 645.543L209.783 649.035L145.296 672.396L188.724 795.984C188.724 795.984 166.524 820.102 127.819 811.059Z" fill="#263238"/>
<path d="M70.0205 702.939L68.4971 763.647L114.029 764.753L120.588 691.901L70.0205 702.939Z" fill="#A36957"/>
<path d="M65.7879 758.224L66.6193 790.221C66.6193 790.221 14.7451 808.725 14.0645 818.194L113.96 819.199L117.032 757.332L65.7879 758.224Z" fill="#3D96FF"/>
<path d="M97.5518 786.234C99.4795 786.778 100.793 788.951 100.325 790.885C99.8564 792.82 97.6431 794.167 95.7063 793.655C93.7695 793.144 92.1113 790.586 92.7942 788.715C93.4771 786.844 96.1631 785.406 97.9195 786.363" fill="#E0E0E0"/>
<g opacity="0.6">
<path d="M113.957 819.199L113.763 811.159L18.0591 813.202C18.0591 813.202 13.5916 815.078 14.0621 818.194L113.957 819.199Z" fill="white"/>
</g>
<path d="M65.0046 789.699C65.016 790.185 67.453 790.427 69.8352 792.01C72.2608 793.53 73.4782 795.641 73.9282 795.453C74.3781 795.362 73.6815 792.459 70.7602 790.595C67.8573 788.706 64.9018 789.252 65.0046 789.699Z" fill="#263238"/>
<path d="M54.4822 793.897C54.3657 794.364 56.4693 795.21 58.1069 797.276C59.8039 799.295 60.199 801.513 60.6855 801.497C61.1423 801.579 61.51 798.744 59.427 796.215C57.3646 793.666 54.4982 793.435 54.4822 793.897Z" fill="#263238"/>
<path d="M48.404 806.289C48.8471 806.396 49.5506 803.983 48.3241 801.318C47.1181 798.644 44.8273 797.574 44.6171 797.975C44.3362 798.37 45.8048 799.81 46.7755 802.012C47.801 804.192 47.9198 806.235 48.404 806.289Z" fill="#263238"/>
<path d="M66.0028 778.017C66.2038 778.459 68.4467 777.815 71.2035 778.028C73.9626 778.187 76.0981 779.126 76.3585 778.713C76.644 778.366 74.5678 776.552 71.32 776.345C68.0721 776.116 65.7676 777.633 66.0028 778.017Z" fill="#263238"/>
<path d="M66.1489 771.775C66.0781 771.773 66.0073 771.063 66.2083 769.8C66.4161 768.548 66.9346 766.713 68.2205 764.771C68.5494 764.297 68.8782 763.785 69.4196 763.32C69.9312 762.857 70.8196 762.501 71.6716 762.816C72.0941 762.953 72.519 763.338 72.6674 763.81C72.8273 764.291 72.7473 764.765 72.6217 765.15C72.3431 765.946 71.9251 766.513 71.5734 767.169C70.7922 768.475 70.1482 769.772 69.15 771.244C68.6453 771.995 67.5124 772.617 66.4778 772.44C65.4591 772.31 64.6369 771.823 63.8946 771.303C62.4556 770.267 61.1903 769.087 60.1008 767.831C59.5573 767.203 59.0593 766.554 58.6071 765.896C58.1777 765.246 57.6729 764.583 57.4834 763.676C57.2915 762.801 57.625 761.653 58.6231 761.256C59.6372 760.893 60.4617 761.397 61.0281 761.796C62.1747 762.739 62.8622 763.71 63.5611 764.647C64.8927 766.52 65.6304 768.237 66.0461 769.435C66.4526 770.641 66.5509 771.34 66.4801 771.36C66.2745 771.446 65.5916 768.661 62.8873 765.146C62.2158 764.313 61.3822 763.3 60.4526 762.592C59.9775 762.254 59.3837 762.039 59.0251 762.218C58.6459 762.354 58.4335 762.919 58.5591 763.463C58.6756 764.025 59.105 764.629 59.5435 765.257C59.9821 765.874 60.464 766.484 60.9848 767.076C62.0285 768.257 63.2413 769.371 64.5935 770.349C65.2444 770.813 65.9547 771.197 66.6171 771.276C67.2795 771.358 67.8025 771.097 68.2387 770.535C69.0701 769.337 69.8649 767.858 70.6301 766.627C70.9978 765.985 71.4409 765.361 71.6328 764.826C71.8337 764.261 71.7218 763.896 71.3267 763.74C70.4154 763.368 69.5315 764.388 68.9148 765.255C66.3476 768.852 66.3818 771.848 66.1489 771.775Z" fill="#263238"/>
<path d="M96.608 534.393C96.608 534.393 69.3279 532.227 66.2924 561.618C63.257 591.009 60.2764 728.164 60.2764 728.164L124.025 733.439L133.892 593.272L235.585 550.319C235.585 550.319 114.821 530.626 96.608 534.393Z" fill="#263238"/>
<path d="M209.047 494.732C209.047 494.732 192.49 540.825 195.645 545.962C198.799 551.099 241.373 572.236 241.373 572.236L347.903 612.863C347.903 612.863 358.843 595.581 358.843 569.034C358.843 542.487 321.788 494.732 321.788 494.732H209.047Z" fill="#263238"/>
<path d="M240.623 547.964C240.63 547.98 240.461 548.071 240.123 548.232C239.732 548.411 239.234 548.64 238.611 548.926C237.206 549.547 235.235 550.418 232.711 551.532C227.481 553.795 219.971 557.043 210.568 561.112C191.567 569.234 164.933 580.619 134.115 593.792L134.46 593.311C133.494 607.155 132.448 622.11 131.368 637.58C128.778 673.745 126.389 707.089 124.498 733.471L124.463 733.949L123.986 733.909C104.597 732.219 88.6867 730.833 77.5454 729.86C72.0683 729.352 67.7653 728.953 64.7573 728.674C63.3412 728.527 62.2334 728.413 61.4158 728.329C60.662 728.243 60.276 728.189 60.2783 728.164C60.2806 728.139 60.6712 728.148 61.4272 728.186C62.2472 728.239 63.3594 728.307 64.7801 728.395C67.7927 728.615 72.1003 728.928 77.5888 729.327C88.7393 730.2 104.661 731.448 124.064 732.97L123.552 733.405C125.377 707.019 127.681 673.668 130.18 637.498C131.276 622.028 132.339 607.075 133.321 593.231L133.346 592.884L133.666 592.748C164.55 579.73 191.241 568.481 210.282 560.454C219.74 556.515 227.296 553.369 232.558 551.178C235.114 550.137 237.11 549.323 238.531 548.744C239.173 548.495 239.682 548.295 240.082 548.139C240.433 548.01 240.616 547.948 240.623 547.964Z" fill="#455A64"/>
<path d="M325.346 552.575C325.319 552.652 324.255 552.357 322.357 551.763C320.242 551.085 317.551 550.223 314.335 549.196C307.568 547.064 298.178 544.093 287.491 542.46C276.804 540.822 266.917 541.328 260.01 542.811C253.071 544.236 249.086 546.202 248.997 545.98C248.967 545.919 249.933 545.379 251.767 544.587C253.599 543.791 256.342 542.825 259.827 541.995C266.785 540.28 276.848 539.632 287.667 541.292C298.482 542.945 307.89 546.066 314.602 548.404C317.962 549.588 320.657 550.604 322.51 551.33C324.364 552.058 325.374 552.5 325.346 552.575Z" fill="#455A64"/>
<path d="M310.288 528.28C310.258 528.469 306.72 527.784 300.974 528.228C298.105 528.426 294.69 528.863 290.89 529.301C287.094 529.75 282.928 530.256 278.616 531.068C269.962 532.599 262.513 535.592 257.742 538.756C252.925 541.868 250.669 544.708 250.504 544.547C250.456 544.508 250.945 543.748 252.05 542.555C253.156 541.367 254.867 539.722 257.272 538.062C262.018 534.649 269.63 531.451 278.394 529.904C282.761 529.083 286.959 528.605 290.771 528.215C294.579 527.838 298.016 527.484 300.93 527.389C303.842 527.285 306.211 527.45 307.823 527.695C309.438 527.94 310.302 528.21 310.288 528.28Z" fill="#455A64"/>
<path d="M206.416 313.131C206.416 313.131 188.311 370.813 188.722 387.329C189.133 403.844 196.035 450.747 195.245 459.995C194.455 469.244 197.696 494.732 209.047 494.732C220.399 494.732 321.788 494.732 321.788 494.732C321.788 494.732 347.25 487.74 348.355 472.547C349.461 457.353 314.202 310.04 314.202 310.04C314.202 310.04 307.549 282.955 298.237 280.973C288.923 278.991 278.522 280.95 272.284 300.106C266.049 319.264 263.954 346.21 250.648 359.423C237.344 372.634 218.405 387.476 218.405 387.476C218.405 387.476 203.104 374.78 202.439 357.604C201.775 340.429 208.227 312.58 208.227 312.58L206.416 313.131Z" fill="#3D96FF"/>
<path d="M325.099 323.183C322.322 318.69 317.679 315.565 312.704 313.725C307.729 311.886 302.401 311.221 297.113 310.754C292.383 310.337 287.546 310.076 282.948 311.26C278.35 312.444 276.441 318.1 274.522 322.414C271.444 341.719 272.492 361.662 277.574 380.545C278.334 383.369 279.214 386.231 280.954 388.585C282.647 390.876 285.045 392.538 287.452 394.074C291.447 396.621 295.773 398.986 300.505 399.347C308.954 399.989 316.751 393.908 320.693 386.462C324.638 379.016 325.524 370.4 326.339 362.027C326.849 356.792 327.36 351.558 327.87 346.326C328.642 338.449 329.27 329.928 325.099 323.183Z" fill="#A36957"/>
<path d="M223.123 495.977C223.082 496.095 221.177 495.537 218.662 493.637C216.143 491.772 213.222 488.429 211.125 484.152C209.026 479.877 207.964 475.71 207.288 472.721C206.628 469.718 206.356 467.84 206.509 467.804C206.674 467.763 207.238 469.582 208.101 472.513C208.983 475.434 210.159 479.491 212.192 483.63C214.222 487.765 216.906 491.033 219.197 492.99C221.474 494.979 223.214 495.798 223.123 495.977Z" fill="#263238"/>
<path d="M282.776 424.492C282.82 424.549 282.169 425.141 280.887 426.08C279.604 427.014 277.646 428.253 275.052 429.455C272.464 430.663 269.193 431.757 265.429 432.321C261.67 432.847 257.408 432.818 253.128 431.793C244.476 429.797 237.969 424.733 233.988 420.766C231.975 418.754 230.539 416.958 229.589 415.692C228.664 414.406 228.205 413.662 228.266 413.617C228.438 413.483 230.482 416.336 234.572 420.167C238.64 423.923 245.054 428.724 253.397 430.643C261.727 432.646 269.627 430.877 274.711 428.69C279.878 426.508 282.646 424.295 282.776 424.492Z" fill="#263238"/>
<path d="M221.725 493.904C221.483 494.099 219.932 492.337 219.397 489.586C218.845 486.837 219.61 484.624 219.909 484.714C220.249 484.778 220.058 486.878 220.565 489.359C221.04 491.845 222.015 493.718 221.725 493.904Z" fill="#263238"/>
<path d="M268.438 322.918C268.486 323.045 267.195 322.924 265.678 324.303C264.959 324.99 264.228 326.052 263.908 327.451C263.589 328.817 263.71 330.626 264.943 331.931L265.343 332.352L264.776 332.52C262.326 333.244 259.815 335.219 258.402 338.208C256.983 341.118 256.611 345.144 258.625 348.421L259.313 349.539L258.038 349.208C255.382 348.521 252.111 349.483 250.232 351.835C248.352 354.152 248.101 357.879 249.869 360.544L248.818 361.061C248.213 359.206 245.703 358.478 243.597 359.056C241.338 359.548 239.856 361.489 239.15 363.639C238.417 365.79 238.289 368.105 238.184 370.355L238.031 373.614L237.058 370.502C236.541 368.854 234.488 367.996 232.798 368.275C231.085 368.525 229.705 369.92 228.995 371.455C227.492 374.648 228.404 378.173 229.089 381.173L228.168 381.273C228.205 379.706 227.337 378.291 226.229 377.359C225.094 376.438 223.712 375.932 222.424 375.962C219.734 375.982 218.158 378.291 217.824 380.06C217.402 381.91 217.877 383.419 218.365 384.278C218.872 385.151 219.327 385.487 219.274 385.544C219.274 385.544 218.747 385.297 218.132 384.421C217.539 383.559 216.936 381.972 217.31 379.955C217.5 378.971 217.902 377.86 218.761 376.928C219.59 375.986 220.905 375.265 222.404 375.218C223.89 375.147 225.462 375.687 226.768 376.708C228.043 377.735 229.114 379.364 229.105 381.291L229.084 385.02L228.184 381.391C227.805 379.862 227.387 378.239 227.227 376.476C227.063 374.732 227.198 372.789 228.034 371.006C228.833 369.257 230.393 367.543 232.634 367.178C234.726 366.835 237.343 367.781 238.163 370.158L237.037 370.305C237.138 368.035 237.243 365.631 238.04 363.258C238.437 362.079 239.04 360.925 239.899 359.94C240.778 358.915 242.019 358.235 243.311 357.906C244.577 357.604 245.924 357.577 247.171 358.022C248.427 358.412 249.508 359.446 249.939 360.668L251.577 365.309L248.889 361.186C246.838 358.04 247.146 353.839 249.348 351.125C251.566 348.41 255.245 347.369 258.315 348.183L257.728 348.972C255.506 345.257 256.017 340.898 257.584 337.805C259.151 334.623 261.914 332.532 264.587 331.824L264.42 332.411C263.004 330.822 262.967 328.771 263.367 327.311C263.774 325.802 264.612 324.7 265.425 324.011C266.254 323.312 267.072 323.058 267.606 322.94C268.152 322.881 268.438 322.888 268.438 322.918Z" fill="#3D96FF"/>
<path d="M206.98 313.476C207.002 313.462 207.114 313.603 207.297 313.909C207.45 314.224 207.658 314.728 207.701 315.424C207.742 316.114 207.633 317 207.174 317.919C206.717 318.817 205.876 319.801 204.547 320.223L204.654 319.686C206.393 321.031 207.825 323.53 207.857 326.53C207.93 329.438 206.662 333.078 203.325 334.963L203.375 334.112C206.221 336.063 207.276 340.03 206.518 343.618C205.735 347.289 203.337 350.435 200.945 353.436L200.009 352.724C201.742 350.533 205.356 350.993 206.87 353.245C208.236 355.282 208.026 357.831 207.096 359.793C206.148 361.782 204.62 363.274 203.168 364.612L202.578 363.651C206.313 362.408 210.383 364.862 211.104 368.309C211.778 371.759 209.508 375.034 206.598 375.866L205.276 376.245L206.071 375.131C207.192 373.562 209.19 373.127 210.746 373.367C212.347 373.589 213.742 374.317 214.768 375.283C216.856 377.331 217.123 379.921 217.212 381.788C217.248 383.716 217.002 385.192 216.84 386.186C216.664 387.181 216.536 387.701 216.488 387.694C216.319 387.683 216.805 385.546 216.664 381.813C216.52 380.021 216.111 377.558 214.243 375.848C213.313 375.013 212.032 374.388 210.636 374.226C209.257 374.054 207.697 374.458 206.852 375.685L206.326 374.95C208.725 374.254 210.659 371.344 210.049 368.534C209.492 365.758 205.938 363.678 202.971 364.73L200.333 365.665L202.382 363.769C203.805 362.451 205.209 361.036 206.027 359.299C206.831 357.618 206.943 355.447 205.892 353.917C204.837 352.238 201.982 351.991 200.959 353.424L200.023 352.712C202.425 349.725 204.696 346.718 205.426 343.391C206.146 340.134 205.187 336.598 202.802 334.936L202.137 334.473L202.855 334.085C205.774 332.502 207.037 329.234 207.025 326.542C207.055 323.773 205.812 321.468 204.271 320.171L203.816 319.79L204.378 319.633C205.509 319.32 206.299 318.493 206.753 317.697C207.213 316.885 207.366 316.077 207.377 315.435C207.368 314.127 206.893 313.51 206.98 313.476Z" fill="#3D96FF"/>
<g opacity="0.3">
<path d="M230.151 416.194C231.008 424.646 235.078 432.854 241.733 438.191C248.386 443.528 257.634 445.748 265.859 443.412C274.084 441.076 280.911 434.011 282.336 425.635C276.537 428.259 270.646 430.911 264.347 431.856C250.917 433.873 236.576 427.15 229.607 415.572C229.913 415.894 230.22 416.214 230.526 416.536" fill="black"/>
</g>
<g opacity="0.3">
<path d="M206.473 469.562C204.771 478.017 207.953 487.273 214.505 492.929C215.917 494.147 217.803 495.261 219.564 494.632C213.242 487.316 208.752 478.45 206.603 469.049" fill="black"/>
</g>
<path d="M294.834 304.17C294.834 304.17 269.324 308.128 275.495 344.146C281.669 380.166 325.865 441.142 325.865 441.142L229.377 499.493L240.621 525.427L365.766 474.279C365.766 474.279 378.1 461.671 373.746 447.626C369.393 433.578 337.136 345.164 337.136 345.164C337.136 345.164 325.303 298.047 294.834 304.17Z" fill="#A36957"/>
<path d="M145.293 521.644L179.8 499.998L225.546 502.133L229.377 499.493L240.621 525.427C240.621 525.427 228.31 531.272 221.862 531.794L181.963 528.791L139.574 525.622L145.293 521.644Z" fill="#A36957"/>
<path d="M325.628 441.858C325.56 441.904 324.767 440.858 323.39 438.928C322.008 437.003 320.069 434.172 317.728 430.641C313.041 423.58 306.811 413.66 300.397 402.434C293.991 391.198 288.621 380.795 284.928 373.172C283.08 369.362 281.63 366.259 280.677 364.091C279.718 361.927 279.222 360.714 279.298 360.68C279.371 360.646 280.008 361.791 281.095 363.894C282.274 366.18 283.818 369.18 285.681 372.8C289.562 380.316 295.037 390.638 301.432 401.851C307.832 413.055 313.934 423.023 318.436 430.189C320.606 433.637 322.406 436.494 323.776 438.674C325.032 440.681 325.697 441.813 325.628 441.858Z" fill="#7C3B29"/>
<path d="M349.339 450.059C349.111 450.356 344.554 446.553 337.791 444.104C331.054 441.579 325.102 441.509 325.124 441.137C325.067 440.858 331.223 440.386 338.205 442.995C345.21 445.539 349.565 449.885 349.339 450.059Z" fill="#7C3B29"/>
<path d="M6.38281 413.615C7.26444 416.239 41.883 531.794 41.883 531.794L240.623 545.962L247.923 533.721L136.977 525.427L105.805 406.859C104.508 401.926 99.65 398.775 94.5795 399.583L6.38281 413.615Z" fill="#455A64"/>
<path d="M69.1035 462.109C70.7822 465.545 70.081 469.326 67.539 470.548C64.9969 471.773 61.5754 469.979 59.8967 466.541C58.2179 463.103 58.9191 459.324 61.4612 458.099C64.0033 456.879 67.4248 458.673 69.1035 462.109Z" fill="#FAFAFA"/>
<path d="M244.083 540.16C244.081 540.178 243.887 540.183 243.505 540.174C243.06 540.156 242.505 540.133 241.815 540.103C240.244 540.013 238.072 539.888 235.308 539.729C229.562 539.348 221.378 538.806 211.246 538.135C190.775 536.672 162.449 534.651 130.616 532.376L130.205 532.347L130.091 531.952C129.018 528.235 127.878 524.289 126.725 520.297C117.216 487.107 108.612 457.067 102.354 435.224C99.3097 424.388 96.8384 415.588 95.1003 409.408C94.2872 406.418 93.6454 404.064 93.1863 402.372C92.9944 401.619 92.8391 401.014 92.7181 400.535C92.6198 400.12 92.5787 399.905 92.597 399.898C92.6153 399.891 92.6975 400.098 92.8345 400.501C92.9853 400.971 93.1771 401.565 93.417 402.307C93.9286 403.985 94.6412 406.316 95.5456 409.281C97.3706 415.438 99.9652 424.202 103.163 434.995C109.505 456.813 118.228 486.819 127.867 519.973C129.018 523.967 130.155 527.913 131.229 531.63L130.703 531.206C162.526 533.628 190.841 535.785 211.306 537.343C221.426 538.167 229.6 538.831 235.342 539.298C238.099 539.546 240.267 539.741 241.834 539.883C242.519 539.956 243.071 540.015 243.515 540.063C243.891 540.108 244.086 540.142 244.083 540.16Z" fill="#263238"/>
<path d="M272.06 187.062L271.875 178.183L217.799 170.209C201.183 169.138 183.964 186.325 183.591 202.854C183.178 221.22 183.402 243.66 186.145 257.241C191.663 284.548 213.021 287.192 213.021 287.192L214.252 314.472L275.495 312.768L272.06 187.062Z" fill="#A36957"/>
<path d="M195.048 222.069C195.057 223.933 196.656 225.462 198.615 225.486C200.573 225.511 202.153 224.026 202.144 222.162C202.135 220.297 200.536 218.766 198.581 218.741C196.622 218.714 195.039 220.204 195.048 222.069Z" fill="#263238"/>
<path d="M189.92 214.296C190.379 214.738 192.987 212.654 196.809 212.509C200.623 212.312 203.505 214.149 203.9 213.668C204.097 213.455 203.613 212.643 202.356 211.808C201.119 210.978 199.036 210.207 196.656 210.311C194.278 210.42 192.311 211.37 191.197 212.307C190.059 213.251 189.694 214.099 189.92 214.296Z" fill="#263238"/>
<path d="M230.756 221.309C230.765 223.173 232.364 224.702 234.324 224.727C236.281 224.752 237.861 223.266 237.852 221.402C237.843 219.538 236.244 218.007 234.287 217.982C232.327 217.954 230.745 219.445 230.756 221.309Z" fill="#263238"/>
<path d="M227.496 213.491C227.955 213.933 230.568 211.849 234.385 211.704C238.199 211.507 241.081 213.344 241.479 212.863C241.673 212.65 241.196 211.838 239.935 211.005C238.697 210.173 236.614 209.402 234.234 209.508C231.854 209.617 229.89 210.568 228.775 211.504C227.638 212.445 227.272 213.294 227.496 213.491Z" fill="#263238"/>
<path d="M214.784 242.179C214.793 241.964 212.401 241.651 208.535 241.317C207.555 241.256 206.623 241.102 206.433 240.446C206.175 239.754 206.541 238.695 206.968 237.55C207.788 235.169 208.649 232.674 209.551 230.059C213.128 219.397 215.674 210.645 215.24 210.506C214.806 210.366 211.556 218.896 207.977 229.558C207.118 232.186 206.299 234.69 205.517 237.087C205.193 238.203 204.608 239.476 205.166 240.909C205.458 241.621 206.196 242.118 206.828 242.261C207.461 242.424 208.009 242.413 208.493 242.422C212.374 242.474 214.777 242.394 214.784 242.179Z" fill="#263238"/>
<path d="M213.036 287.265C213.036 287.265 232.649 287.614 250.647 275.859C250.647 275.859 242.084 295.479 213.333 294.118L213.036 287.265Z" fill="#7C3B29"/>
<path d="M216.771 251.256C218.07 249.396 220.437 248.309 222.837 248.468C224.502 248.579 226.211 249.305 227.27 250.605C228.332 251.904 228.62 253.798 227.757 255.113C226.786 256.594 224.644 257.014 222.801 256.572C220.955 256.129 219.338 255.002 217.801 253.875C217.376 253.562 216.94 253.238 216.663 252.798C216.389 252.358 216.309 251.773 216.613 251.387" fill="#7C3B29"/>
<path d="M226.133 244.349C225.51 244.338 225.672 248.457 222.241 251.521C218.818 254.596 214.38 254.311 214.371 254.889C214.323 255.15 215.387 255.649 217.255 255.624C219.087 255.612 221.737 254.921 223.836 253.047C225.928 251.167 226.761 248.738 226.834 247.044C226.919 245.316 226.414 244.315 226.133 244.349Z" fill="#263238"/>
<path d="M225.902 198.665C226.322 199.681 230.114 199.039 234.618 199.393C239.129 199.661 242.797 200.817 243.352 199.867C243.599 199.414 242.929 198.47 241.429 197.529C239.94 196.59 237.589 195.737 234.887 195.547C232.185 195.363 229.739 195.887 228.134 196.613C226.516 197.338 225.722 198.182 225.902 198.665Z" fill="#263238"/>
<path d="M190.875 203.262C191.583 204.097 194.178 203.097 197.339 202.927C200.495 202.648 203.207 203.269 203.787 202.344C204.038 201.895 203.581 201.049 202.377 200.28C201.19 199.513 199.235 198.928 197.063 199.08C194.891 199.237 193.038 200.092 191.974 201.019C190.894 201.951 190.562 202.852 190.875 203.262Z" fill="#263238"/>
<path d="M176.477 169.551C180.928 179.167 190.921 193.48 201.527 194.515C212.137 195.549 223.134 190.632 229.385 182.059C231.169 189.856 240.017 193.816 247.991 194.93C253.628 195.717 259.555 195.64 264.79 193.419C270.027 191.199 274.446 186.525 275.173 180.918C275.897 175.309 267.576 161.765 261.958 160.853" fill="#263238"/>
<path d="M262.846 310.028C263.354 318.903 270.142 327.072 278.819 329.254C278.54 336.469 284.092 343.47 291.218 344.892C298.344 346.314 306.19 341.987 308.741 335.226C309.41 333.455 309.774 331.509 310.954 330.023C313.666 326.614 318.951 327.29 323.112 325.952C330.608 323.541 333.854 314.419 333.009 306.64C332.842 305.107 332.559 303.558 332.787 302.032C333.253 298.908 335.711 296.527 337.545 293.946C345.084 283.336 341.941 267.925 333.582 257.939C330.795 254.61 327.278 251.131 327.534 246.808C327.676 244.393 329.014 242.236 329.9 239.984C332.776 232.685 330.54 223.697 324.569 218.569C323.653 217.782 322.605 216.997 322.285 215.836C322.082 215.099 322.21 214.319 322.301 213.561C323.658 202.065 314.344 190.38 302.764 189.053C302.067 188.974 301.346 188.92 300.722 188.597C298.943 187.677 298.888 185.243 298.655 183.263C298.038 178.035 293.968 168.272 289.937 164.854C278.766 155.378 267.935 163.089 264.073 166.695C264.073 166.695 256.424 204.349 257.904 211.359C259.382 218.37 264.573 235.858 262.518 243.798C260.462 251.739 257.093 268.002 260.325 275.163C263.561 282.329 262.846 310.028 262.846 310.028Z" fill="#263238"/>
<path d="M304.643 188.908C304.689 188.976 304.164 189.394 303.168 190.097C302.181 190.813 300.669 191.727 298.739 192.741C294.884 194.778 289.178 196.982 282.566 198.071C275.949 199.137 269.831 198.86 265.523 198.153C263.367 197.806 261.638 197.418 260.475 197.053C259.306 196.703 258.673 196.474 258.694 196.395C258.744 196.198 261.352 196.848 265.635 197.325C269.908 197.81 275.892 197.948 282.374 196.905C288.849 195.839 294.475 193.809 298.367 191.993C302.268 190.183 304.531 188.738 304.643 188.908Z" fill="#455A64"/>
<path d="M308.286 191.573C308.362 191.605 308.072 192.396 307.478 193.812C307.192 194.526 306.811 195.383 306.27 196.331C305.74 197.284 305.198 198.409 304.408 199.538C302.96 201.879 300.93 204.476 298.431 207.134C295.877 209.738 292.821 212.373 289.302 214.709C285.752 217.002 282.109 218.753 278.693 220.057C275.248 221.291 272.044 222.121 269.308 222.52C267.953 222.797 266.697 222.849 265.608 222.955C264.518 223.076 263.573 223.087 262.801 223.067C261.257 223.053 260.409 223.005 260.409 222.924C260.402 222.686 263.817 222.74 269.159 221.699C271.831 221.202 274.949 220.304 278.304 219.041C281.63 217.707 285.177 215.965 288.651 213.722C292.093 211.436 295.103 208.885 297.648 206.376C300.137 203.814 302.197 201.323 303.709 199.078C306.772 194.612 308.067 191.476 308.286 191.573Z" fill="#455A64"/>
<path d="M288.459 331.447C288.464 331.386 288.936 331.463 289.791 331.3C290.631 331.132 291.869 330.629 292.977 329.411C294.087 328.216 295.021 326.349 295.051 324.013C295.137 321.684 294.448 319.073 293.616 316.195C292.863 313.351 291.833 309.901 293.02 306.3C294.192 302.732 297.083 299.979 299.66 297.044C300.948 295.568 302.22 293.996 302.962 292.182C303.757 290.39 303.661 288.29 302.789 286.498C301.91 284.69 300.272 283.246 298.495 281.973C296.709 280.687 294.738 279.551 292.851 278.161C290.99 276.784 289.153 275.088 288.315 272.786C287.436 270.499 287.957 267.934 289.025 265.984C291.168 262.069 294.514 259.232 295.306 255.481C296.199 251.757 294.464 248.142 292.49 245.384C290.46 242.56 288.062 240.324 285.828 238.31C283.603 236.269 281.694 234.282 280.239 232.352C278.795 230.415 277.829 228.528 277.347 226.89C276.854 225.248 276.852 223.901 276.897 223.017C277.012 222.13 277.114 221.676 277.151 221.683C277.318 221.676 276.742 223.593 277.79 226.752C278.805 229.923 281.87 233.783 286.394 237.695C288.655 239.661 291.154 241.916 293.292 244.814C294.352 246.264 295.322 247.89 295.962 249.736C296.617 251.566 296.841 253.673 296.378 255.719C295.471 259.933 291.99 262.872 290.062 266.521C289.092 268.331 288.69 270.459 289.432 272.4C290.135 274.337 291.762 275.893 293.561 277.217C295.373 278.555 297.346 279.694 299.189 281.025C301.019 282.345 302.819 283.897 303.839 286.001C304.856 288.076 304.929 290.585 304.018 292.603C303.168 294.642 301.804 296.268 300.484 297.768C297.828 300.725 295.046 303.381 293.957 306.611C292.833 309.824 293.717 313.136 294.429 315.982C295.204 318.862 295.873 321.586 295.715 324.045C295.624 326.508 294.541 328.531 293.313 329.731C292.084 330.973 290.725 331.441 289.829 331.536C288.918 331.627 288.459 331.447 288.459 331.447Z" fill="#455A64"/>
</svg>
