<svg width="24" height="24" viewBox="0 0 24 24" fill="none" xmlns="http://www.w3.org/2000/svg">
<path d="M17 2H7C5.34315 2 4 3.34315 4 5V19C4 20.6569 5.34315 22 7 22H16H17C18.6569 22 20 20.6569 20 19V12V5C20 3.34315 18.6569 2 17 2Z" fill="#4E74FA" stroke="#4E74FA"/>
<path d="M20.75 16V15.25H20H7C4.92893 15.25 3.25 16.9289 3.25 19C3.25 21.0711 4.92893 22.75 7 22.75H17C19.0711 22.75 20.75 21.0711 20.75 19V16Z" fill="#12C6FF" stroke="white" stroke-width="1.5"/>
<line x1="7.75" y1="7.25" x2="16.25" y2="7.25" stroke="white" stroke-width="1.5" stroke-linecap="round"/>
<line x1="7.75" y1="11.25" x2="12.25" y2="11.25" stroke="white" stroke-width="1.5" stroke-linecap="round"/>
</svg>
