<svg width="24" height="24" viewBox="0 0 24 24" fill="none" xmlns="http://www.w3.org/2000/svg">
<path d="M19.25 12C19.25 12.4142 19.5858 12.75 20 12.75C20.4142 12.75 20.75 12.4142 20.75 12H19.25ZM7 2.75H17V1.25H7V2.75ZM4.75 19V5H3.25V19H4.75ZM16 21.25H7V22.75H16V21.25ZM19.25 5V12H20.75V5H19.25ZM3.25 19C3.25 21.0711 4.92893 22.75 7 22.75V21.25C5.75736 21.25 4.75 20.2426 4.75 19H3.25ZM17 2.75C18.2426 2.75 19.25 3.75736 19.25 5H20.75C20.75 2.92893 19.0711 1.25 17 1.25V2.75ZM7 1.25C4.92893 1.25 3.25 2.92893 3.25 5H4.75C4.75 3.75736 5.75736 2.75 7 2.75V1.25Z" fill="#7E8CA0"/>
<path d="M4 19C4 17.3431 5.34315 16 7 16H20V19C20 20.6569 18.6569 22 17 22H7C5.34315 22 4 20.6569 4 19V19Z" stroke="#7E8CA0" stroke-width="1.5"/>
<line x1="7.75" y1="7.25" x2="16.25" y2="7.25" stroke="#7E8CA0" stroke-width="1.5" stroke-linecap="round"/>
<line x1="7.75" y1="11.25" x2="12.25" y2="11.25" stroke="#7E8CA0" stroke-width="1.5" stroke-linecap="round"/>
</svg>
