<svg width="29" height="29" viewBox="0 0 29 29" fill="none" xmlns="http://www.w3.org/2000/svg">
<path d="M24.3277 19.8326C25.2555 17.9512 25.6046 15.8368 25.3308 13.7569C25.0569 11.6771 24.1725 9.72512 22.7893 8.1479C21.4062 6.57069 19.5863 5.43905 17.56 4.89609C15.5337 4.35314 13.3918 4.42326 11.4054 5.09758C9.41888 5.7719 7.67697 7.02013 6.3999 8.68444C5.12284 10.3487 4.36798 12.3544 4.23077 14.4477C4.09357 16.541 4.58019 18.628 5.62909 20.4448" stroke="#7E8CA0" stroke-width="1.5" stroke-linecap="round"/>
<path d="M15.0001 16C16.6569 16 18.0001 14.6568 18.0001 13C18.0001 11.3431 16.6569 10 15.0001 10C13.3432 10 12.0001 11.3431 12.0001 13C12.0001 14.6568 13.3432 16 15.0001 16Z" stroke="#7E8CA0" stroke-width="1.5" stroke-linecap="round" stroke-linejoin="round"/>
<path d="M21.9998 26C21.9998 22.1349 18.8673 19 14.9998 19C11.1323 19 7.99982 22.1349 7.99982 26" stroke="#7E8CA0" stroke-width="1.5" stroke-linecap="round" stroke-linejoin="round"/>
</svg>
