<svg width="24" height="25" viewBox="0 0 24 25" fill="none" xmlns="http://www.w3.org/2000/svg">
<circle cx="12" cy="11.6522" r="10" fill="#4E74FA" stroke="#4E74FA" stroke-width="1.5"/>
<path d="M12.0001 13C13.6569 13 15.0001 11.6568 15.0001 9.99996C15.0001 8.3431 13.6569 7 12.0001 7C10.3432 7 9.00009 8.3431 9.00009 9.99996C9.00009 11.6568 10.3432 13 12.0001 13Z" fill="#12C6FF" stroke="#12C6FF" stroke-width="1.5" stroke-linecap="round" stroke-linejoin="round"/>
<mask id="path-3-outside-1_493_1511" maskUnits="userSpaceOnUse" x="2.99985" y="14.0001" width="18" height="11" fill="black">
<rect fill="white" x="2.99985" y="14.0001" width="18" height="11"/>
<path d="M18.9998 23.0001C18.9998 19.135 15.8673 16.0001 11.9998 16.0001C8.13235 16.0001 4.99985 19.135 4.99985 23.0001"/>
</mask>
<path d="M18.9998 23.0001C18.9998 19.135 15.8673 16.0001 11.9998 16.0001C8.13235 16.0001 4.99985 19.135 4.99985 23.0001" fill="#12C6FF"/>
<path d="M18.9998 23.7501C19.4141 23.7501 19.7498 23.4143 19.7498 23.0001C19.7498 22.5858 19.4141 22.2501 18.9998 22.2501V23.7501ZM4.99985 22.2501C4.58563 22.2501 4.24985 22.5858 4.24985 23.0001C4.24985 23.4143 4.58563 23.7501 4.99985 23.7501V22.2501ZM18.9998 22.2501H4.99985V23.7501H18.9998V22.2501ZM17.4998 23.0001C17.4998 23.8285 18.1714 24.5001 18.9998 24.5001C19.8283 24.5001 20.4998 23.8285 20.4998 23.0001H17.4998ZM3.49985 23.0001C3.49985 23.8285 4.17142 24.5001 4.99985 24.5001C5.82827 24.5001 6.49985 23.8285 6.49985 23.0001H3.49985ZM20.4998 23.0001C20.4998 18.3069 16.6961 14.5001 11.9998 14.5001V17.5001C15.0386 17.5001 17.4998 19.9631 17.4998 23.0001H20.4998ZM11.9998 14.5001C7.30358 14.5001 3.49985 18.3069 3.49985 23.0001H6.49985C6.49985 19.9631 8.96111 17.5001 11.9998 17.5001V14.5001Z" fill="white" mask="url(#path-3-outside-1_493_1511)"/>
</svg>
