<svg width="24" height="25" viewBox="0 0 24 25" fill="none" xmlns="http://www.w3.org/2000/svg">
<path d="M19 3H5C3.34315 3 2 4.34315 2 6V20C2 21.6569 3.34315 23 5 23H19C20.6569 23 22 21.6569 22 20V6C22 4.34315 20.6569 3 19 3Z" fill="#4E74FA" stroke="#4E74FA" stroke-width="1.5"/>
<path d="M8 1.25H7.25V2V12.4423C7.25 14.0354 9.20538 14.7999 10.2859 13.6293L11.8163 11.9714C11.9153 11.8642 12.0847 11.8642 12.1837 11.9714L13.7141 13.6293C14.7946 14.7999 16.75 14.0354 16.75 12.4423V2V1.25H16H8Z" fill="#12C6FF" stroke="white" stroke-width="1.5"/>
</svg>
